<svg width="161" height="33" viewBox="0 0 161 33" fill="none" xmlns="http://www.w3.org/2000/svg">
<path d="M50.5525 17.3488C50.5473 17.3464 49.7546 16.9518 49.3541 16.7802C48.9464 16.6022 48.5338 16.4467 48.1182 16.2991C47.2831 16.0097 46.4431 15.7565 45.5908 15.5569C44.7396 15.3578 43.882 15.2009 43.021 15.0846C42.161 14.9663 41.2966 14.8918 40.4322 14.8543C40.0005 14.8362 39.5687 14.8283 39.1361 14.8302C38.937 14.8288 38.6969 14.8346 38.4883 14.8395C38.2791 14.8464 38.0677 14.8562 37.8523 14.8699C36.9972 14.926 36.1435 15.0342 35.2901 15.1736C34.4383 15.3184 33.5863 15.4933 32.7351 15.6869C31.8838 15.884 31.0312 16.0951 30.1765 16.3079C29.3214 16.525 28.4628 16.741 27.5992 16.9439C26.7354 17.1512 25.8656 17.3415 24.9883 17.5076C24.1122 17.6788 23.2273 17.8132 22.3383 17.9189C21.4479 18.0221 20.5526 18.0843 19.6546 18.1007C18.7573 18.113 17.8568 18.0826 16.9615 17.9862C16.0681 17.8893 15.1769 17.7554 14.2997 17.5432C13.4241 17.3316 12.5567 17.0803 11.7143 16.7531C10.8699 16.4333 10.0436 16.0604 9.24573 15.6305C10.0945 15.9166 10.9476 16.1707 11.8068 16.3791C12.2361 16.4817 12.6668 16.5715 13.098 16.6567C13.5303 16.7353 13.9621 16.8078 14.3952 16.8601C15.2621 16.971 16.1305 17.043 16.9979 17.0567C17.8653 17.0704 18.7321 17.043 19.5951 16.9727C20.4581 16.9048 21.3176 16.7941 22.1743 16.6534C23.0315 16.5154 23.8841 16.3405 24.7367 16.1513C25.5879 15.9602 26.4392 15.7469 27.2896 15.5303L29.8512 14.8639C30.7087 14.6413 31.5712 14.4258 32.4421 14.2342C32.8777 14.1372 33.3163 14.0458 33.7563 13.9598C34.1963 13.8771 34.6387 13.8029 35.0837 13.7364C35.5286 13.6704 35.976 13.6157 36.4244 13.571C36.8743 13.5289 37.3266 13.5015 37.7797 13.4853C38.005 13.4779 38.2328 13.4741 38.4647 13.4747C38.6975 13.4766 38.8984 13.4777 39.1399 13.4903C39.5898 13.5089 40.0396 13.5387 40.4889 13.5798C41.3861 13.6633 42.2798 13.7975 43.1658 13.9798C43.6088 14.0702 44.048 14.1783 44.486 14.2917C44.9227 14.4149 45.3578 14.5419 45.7876 14.6887C46.6493 14.9761 47.4975 15.3121 48.3183 15.7154C49.1402 16.1187 49.9392 16.5636 50.691 17.1273L51.9193 18.0749L50.5525 17.3488Z" fill="#CF1022"/>
<path d="M106.428 6.75901C104.333 6.03455 102.215 5.3821 100.093 4.73239C97.971 4.08405 95.8255 3.50415 93.6688 2.95519C91.5094 2.41883 89.3369 1.90848 87.1394 1.506C84.9419 1.10133 82.728 0.757447 80.4996 0.492414C78.2693 0.23231 76.0225 0.0940432 73.7722 0.0255947C71.5214 -0.0403896 69.2645 0.0261432 67.0158 0.168516C64.7663 0.316639 62.5245 0.571814 60.3002 0.918985C58.0756 1.26369 55.8683 1.70231 53.684 2.21568C51.4942 2.71836 49.3369 3.32701 47.192 3.96412C46.1218 4.28939 45.0529 4.61876 43.9889 4.98346C42.9148 5.33309 41.8758 5.70271 40.8354 6.07234L39.2791 6.615C38.7701 6.79543 38.2611 6.97449 37.7459 7.13274C36.721 7.47006 35.6845 7.76986 34.6435 8.04858C32.561 8.60192 30.4476 9.03807 28.3172 9.34171C27.7833 9.41892 27.2505 9.4923 26.7155 9.54514C26.1805 9.61058 25.6453 9.65521 25.1089 9.69901C24.0373 9.79594 22.9634 9.84905 21.8883 9.87068C19.739 9.91066 17.5856 9.80278 15.4588 9.51475C14.3942 9.37539 13.3401 9.17881 12.2959 8.95156C11.7746 8.83821 11.2579 8.70706 10.7479 8.56386C10.2476 8.42204 9.71237 8.25201 9.28306 8.08609L8.37707 7.73563L1.48705 4.98537C0.154765 4.59768 -0.167218 4.92487 0.0731735 5.60251C0.0707094 5.59949 0.0685207 5.59648 0.0663304 5.5932C0.0663304 5.5932 5.57069 24.2635 42.7916 8.69693C44.5674 8.10334 46.317 7.55329 48.1024 7.02185C50.1961 6.40691 52.3005 5.8377 54.4199 5.34541C55.4751 5.08148 56.5405 4.86874 57.6025 4.63848C58.6687 4.43833 59.7332 4.22176 60.8051 4.05612C62.9434 3.68787 65.0935 3.41407 67.2515 3.23419C69.4101 3.04062 71.5756 2.92863 73.7446 2.92727C75.913 2.90865 78.0858 2.9927 80.2576 3.13069C82.4293 3.28073 84.6008 3.50826 86.7692 3.79711C88.9344 4.10129 91.1023 4.44053 93.2655 4.82329C95.4282 5.21345 97.5835 5.66028 99.7454 6.09944C104.061 7.00981 108.366 8.01847 112.691 8.97976C110.616 8.20821 108.53 7.46266 106.428 6.75901Z" fill="#CF1022"/>
<path d="M50.0526 11.267C51.1116 10.4569 58.9429 9.31569 63.3447 10.1269C65.0795 10.4467 71.2108 12.1013 76.3009 12.8077C84.2933 13.9176 93.1697 13.9869 104.815 12.8003C113.252 11.9403 120.794 11.2708 128.542 11.7314C138.3 12.3113 148.383 14.6831 160.991 20.7277C161.4 20.9243 147.482 14.9955 130.885 14.2703C119.734 13.7829 105.378 15.5201 95.5218 16.4636C57.5915 20.0928 49.0787 12.0126 50.0526 11.267Z" fill="#CF1022"/>
<path d="M13.1212 26.427C13.3763 27.0968 13.5922 27.6673 13.7688 28.138C13.9452 28.6088 14.0872 29.0091 14.1951 29.339C14.3031 29.1645 14.4208 28.9875 14.5481 28.8081C14.6757 28.6284 14.8204 28.4242 14.9823 28.196C15.144 27.9678 15.3304 27.7129 15.5414 27.4315C15.7521 27.1502 15.9999 26.8195 16.2844 26.4415L18.359 23.6749C18.5844 23.3641 18.8469 23.1138 19.1465 22.9252C19.4452 22.7359 19.8012 22.6406 20.213 22.6406C20.5957 22.6406 20.9214 22.7499 21.1916 22.9687C21.4614 23.1869 21.6206 23.5241 21.6697 23.9808L22.6408 32.5429H19.6098L19.2713 29.1502C19.2222 28.5966 19.183 28.1111 19.1535 27.6937C19.1241 27.2767 19.1047 26.8691 19.0947 26.4707C18.9867 26.6452 18.8717 26.8227 18.749 27.0023C18.6264 27.182 18.489 27.3811 18.3372 27.5993C18.1851 27.8178 18.0183 28.0531 17.837 28.3055C17.6552 28.5583 17.4516 28.8445 17.2262 29.1647L15.4754 31.6112C15.2988 31.8539 15.1344 32.0457 14.9826 32.1863C14.8302 32.3274 14.676 32.4366 14.519 32.5138C14.362 32.5917 14.205 32.6427 14.0482 32.667C13.8912 32.691 13.7195 32.7031 13.5333 32.7031C13.3469 32.7031 13.1774 32.691 13.0258 32.667C12.8734 32.6424 12.7336 32.5917 12.6063 32.5138C12.4788 32.4366 12.3635 32.3276 12.2601 32.1863C12.1574 32.0457 12.0617 31.8542 11.9734 31.6112L11.0908 29.1504C10.9731 28.8205 10.8676 28.5241 10.7743 28.2621C10.6811 27.9996 10.6002 27.7641 10.5318 27.5559C10.4631 27.3471 10.4015 27.1556 10.3478 26.9808C10.2935 26.8062 10.2423 26.6363 10.1932 26.4707C10.046 26.83 9.87431 27.2351 9.67806 27.687C9.48153 28.1383 9.2711 28.626 9.04568 29.1504L7.51519 32.5432H4.52832L8.58913 23.9811C8.81455 23.5244 9.10429 23.1872 9.45727 22.9689C9.81026 22.7501 10.178 22.6409 10.5607 22.6409C10.9529 22.6409 11.2669 22.7334 11.5024 22.9179C11.7379 23.1025 11.9194 23.3544 12.047 23.6752L13.1212 26.427Z" fill="white"/>
<path d="M31.8393 22.6406C33.9766 22.6406 35.5774 22.9735 36.6416 23.6382C37.7054 24.3035 38.2373 25.345 38.2373 26.7618C38.2373 28.7624 37.561 30.252 36.2079 31.2324C34.8545 32.2135 32.8003 32.7031 30.0448 32.7031C27.9073 32.7031 26.3065 32.3686 25.2425 31.6983C24.1785 31.029 23.6466 29.9853 23.6466 28.5679C23.6466 26.5681 24.3234 25.0801 25.6765 24.1041C27.0299 23.1286 29.0841 22.6406 31.8393 22.6406ZM30.4862 30.1692C31.4767 30.1692 32.2783 30.1258 32.8911 30.0387C33.5039 29.951 33.9799 29.791 34.3177 29.5582C34.6561 29.3251 34.8842 29.0071 35.0016 28.6043C35.1191 28.2016 35.1779 27.6893 35.1779 27.068C35.1779 26.6798 35.1068 26.3618 34.9646 26.1139C34.8226 25.8667 34.597 25.6725 34.288 25.5314C33.9793 25.3909 33.5842 25.2959 33.1041 25.2474C32.6235 25.1991 32.0499 25.1745 31.3835 25.1745C30.393 25.1745 29.5939 25.2188 28.986 25.3056C28.3781 25.3933 27.9048 25.5533 27.5667 25.7864C27.2283 26.0192 27.0005 26.3375 26.8828 26.7403C26.7648 27.143 26.7059 27.655 26.7059 28.2766C26.7059 28.6745 26.7795 28.9949 26.9266 29.2375C27.0738 29.48 27.2991 29.6721 27.6032 29.8126C27.9073 29.9534 28.2966 30.0484 28.7726 30.0969C29.2484 30.1452 29.8192 30.1692 30.4862 30.1692Z" fill="white"/>
<path d="M52.8279 22.6406L50.3929 25.2579H46.9012L45.6103 32.7031H42.5738L43.8498 25.2579H39.2435L41.6789 22.6406H52.8279Z" fill="white"/>
<path d="M59.008 22.6406C61.1456 22.6406 62.7461 22.9735 63.8104 23.6382C64.8742 24.3035 65.4061 25.345 65.4061 26.7618C65.4061 28.7624 64.7295 30.252 63.3764 31.2324C62.023 32.2135 59.9688 32.7031 57.2135 32.7031C55.0759 32.7031 53.4751 32.3686 52.4113 31.6983C51.3473 31.029 50.8154 29.9853 50.8154 28.5679C50.8154 26.5681 51.492 25.0801 52.8451 24.1041C54.1985 23.1286 56.2525 22.6406 59.008 22.6406ZM57.6546 30.1692C58.6454 30.1692 59.4467 30.1258 60.0595 30.0387C60.6723 29.951 61.1481 29.791 61.4862 29.5582C61.8246 29.3251 62.0524 29.0071 62.1701 28.6043C62.2878 28.2016 62.3464 27.6893 62.3464 27.068C62.3464 26.6798 62.2753 26.3618 62.1333 26.1139C61.9914 25.8667 61.7658 25.6725 61.4568 25.5314C61.1481 25.3909 60.753 25.2959 60.2729 25.2474C59.7922 25.1991 59.2186 25.1745 58.5519 25.1745C57.5614 25.1745 56.7625 25.2188 56.1546 25.3056C55.5465 25.3933 55.0732 25.5533 54.7353 25.7864C54.3969 26.0192 54.1691 26.3375 54.0511 26.7403C53.9331 27.143 53.8745 27.655 53.8745 28.2766C53.8745 28.6745 53.9484 28.9949 54.0955 29.2375C54.2424 29.48 54.4677 29.6721 54.7718 29.8126C55.0759 29.9534 55.4655 30.0484 55.9413 30.0969C56.4168 30.1452 56.9879 30.1692 57.6546 30.1692Z" fill="white"/>
<path d="M80.4422 32.7031H76.3556L74.6147 30.0407H69.9236L69.4661 32.7031H66.4124L67.2976 27.5592H75.8836C76.1392 27.5592 76.3827 27.5288 76.6136 27.4686C76.8448 27.4084 77.0465 27.3235 77.2187 27.2128C77.3909 27.1025 77.5286 26.9646 77.6319 26.7993C77.7352 26.6341 77.7866 26.451 77.7866 26.2504C77.7866 25.9197 77.6541 25.6714 77.3881 25.5056C77.1225 25.3404 76.7541 25.2579 76.2821 25.2579H67.6963L70.1453 22.6406H76.4887C77.0001 22.6406 77.5234 22.6855 78.0599 22.7755C78.5958 22.866 79.0826 23.0288 79.5204 23.2642C79.9582 23.5005 80.3146 23.8134 80.5901 24.2046C80.8653 24.5953 81.003 25.0918 81.003 25.6934C81.003 26.1451 80.9268 26.5761 80.7745 26.9874C80.6215 27.399 80.4056 27.7695 80.1255 28.1006C79.8451 28.4313 79.5081 28.7122 79.1148 28.9426C78.7213 29.1731 78.2886 29.3333 77.8167 29.4241C77.9541 29.5545 78.1091 29.7197 78.281 29.9204C78.4532 30.1213 78.677 30.3966 78.9525 30.7474L80.4422 32.7031Z" fill="white"/>
<path d="M91.5488 26.6566C92.5984 26.6566 93.3951 26.8497 93.9397 27.2354C94.4837 27.6216 94.7559 28.1903 94.7559 28.9427C94.7559 29.4841 94.6695 29.9857 94.4961 30.4466C94.3227 30.9083 94.0454 31.3065 93.6654 31.6423C93.2848 31.9784 92.7938 32.2395 92.1919 32.425C91.5898 32.6106 90.8602 32.7031 90.0033 32.7031H81.0032L83.3579 30.1161H90.682C91.0866 30.1161 91.3799 30.0459 91.5633 29.9052C91.746 29.7647 91.8378 29.5493 91.8378 29.2587C91.8378 28.858 91.5341 28.6571 90.9277 28.6571H85.6549C84.5568 28.6571 83.7529 28.4361 83.242 27.9947C82.7317 27.5539 82.4769 26.9673 82.4769 26.235C82.4769 25.7239 82.5634 25.2502 82.7371 24.8139C82.9102 24.3775 83.1872 23.9963 83.5675 23.6708C83.948 23.3448 84.4367 23.0915 85.0337 22.9109C85.6305 22.7304 86.3533 22.6406 87.2009 22.6406H95.5938L93.2246 25.258H86.5217C86.117 25.258 85.8232 25.3207 85.6404 25.4456C85.4571 25.5715 85.3661 25.7844 85.3661 26.0851C85.3661 26.4663 85.6741 26.6569 86.2905 26.6569H91.5488V26.6566Z" fill="white"/>
<path d="M109.179 26.912C109.179 27.7243 108.996 28.4819 108.63 29.1833C108.264 29.8857 107.765 30.4974 107.132 31.0184C106.499 31.5398 105.763 31.9508 104.922 32.2517C104.082 32.5524 103.187 32.7031 102.238 32.7031H95.5941L96.6914 26.4305H99.7615L99.1239 30.1162H102.683C103.157 30.1162 103.6 30.051 104.01 29.9206C104.42 29.7902 104.776 29.6046 105.078 29.3641C105.38 29.1234 105.619 28.8352 105.797 28.4992C105.975 28.1634 106.064 27.795 106.064 27.3932C106.064 27.0831 106.002 26.7967 105.879 26.5364C105.755 26.2756 105.582 26.0502 105.36 25.8596C105.137 25.669 104.87 25.5207 104.559 25.4157C104.248 25.3106 103.904 25.258 103.528 25.258H96.8843L99.3016 22.6406H103.988C104.769 22.6406 105.479 22.7457 106.116 22.9558C106.754 23.1667 107.3 23.4599 107.755 23.836C108.21 24.2122 108.561 24.6611 108.808 25.1824C109.055 25.7035 109.179 26.2806 109.179 26.912Z" fill="#CF1022"/>
<path d="M118.378 22.6406C120.515 22.6406 122.116 22.9735 123.18 23.6382C124.243 24.3035 124.776 25.345 124.776 26.7618C124.776 28.7624 124.099 30.252 122.746 31.2324C121.393 32.2135 119.338 32.7031 116.583 32.7031C114.446 32.7031 112.845 32.3686 111.781 31.6983C110.717 31.029 110.185 29.9853 110.185 28.5679C110.185 26.5681 110.862 25.0801 112.215 24.1041C113.568 23.1286 115.622 22.6406 118.378 22.6406ZM117.024 30.1692C118.015 30.1692 118.817 30.1258 119.429 30.0387C120.041 29.951 120.518 29.791 120.856 29.5582C121.194 29.3251 121.422 29.0071 121.54 28.6043C121.658 28.2016 121.716 27.6893 121.716 27.068C121.716 26.6798 121.645 26.3618 121.503 26.1139C121.361 25.8667 121.135 25.6725 120.827 25.5314C120.518 25.3909 120.123 25.2959 119.643 25.2474C119.162 25.1991 118.588 25.1745 117.922 25.1745C116.931 25.1745 116.132 25.2188 115.525 25.3056C114.916 25.3933 114.443 25.5533 114.105 25.7864C113.767 26.0192 113.539 26.3375 113.421 26.7403C113.303 27.143 113.245 27.655 113.245 28.2766C113.245 28.6745 113.318 28.9949 113.465 29.2375C113.612 29.48 113.838 29.6721 114.142 29.8126C114.446 29.9534 114.835 30.0484 115.311 30.0969C115.786 30.1452 116.358 30.1692 117.024 30.1692Z" fill="#CF1022"/>
<path d="M137.565 32.7031H134.448L135.144 28.8224H129.107L128.426 32.7031H125.278L127.079 22.6406H130.211L129.561 26.2051H135.598L136.233 22.6406H139.366L137.565 32.7031Z" fill="#CF1022"/>
<path d="M143.357 32.7031L145.684 30.1582H148.175C148.483 30.1582 148.797 30.1582 149.115 30.1582C149.434 30.1582 149.712 30.168 149.95 30.1875C149.841 30.0099 149.716 29.7856 149.577 29.514C149.438 29.2432 149.309 28.9888 149.19 28.7522L147.862 26.133L142.014 32.7031H138.36L146.355 23.7508C146.614 23.4649 146.922 23.2083 147.28 22.9814C147.639 22.7547 148.061 22.6406 148.548 22.6406C149.015 22.6406 149.386 22.7473 149.66 22.9589C149.933 23.1713 150.155 23.4348 150.323 23.7508L154.963 32.7031H143.357Z" fill="#CF1022"/>
</svg>
