<svg width="15" height="16" viewBox="0 0 15 16" fill="none" xmlns="http://www.w3.org/2000/svg">
<path d="M10.4 16H0.800049V2.8168C0.800049 1.2636 2.06365 0 3.61685 0H7.58365C9.13645 0 10.4 1.2636 10.4 2.8168V16ZM2.40005 14.4H8.80005V2.8168C8.80005 2.1456 8.25445 1.6 7.58325 1.6H3.61645C2.94565 1.6 2.40005 2.1456 2.40005 2.8168V14.4Z" fill="#404040"/>
<path d="M11.2 14.4H0V16H11.2V14.4Z" fill="#404040"/>
<path d="M13.2 15.2C12.5384 15.2 12 14.6616 12 14V11.6H9.59998V10.8H12.8V14C12.8 14.2208 12.9792 14.4 13.2 14.4C13.4208 14.4 13.6 14.2208 13.6 14V7.19995H14.4V14C14.4 14.6616 13.8616 15.2 13.2 15.2Z" fill="#404040"/>
<path d="M14.4 6.40005V4.80005L13.2 2.80005L12.4 3.20005L13.2 4.40005L12.8 5.20005V6.40005H14.4Z" fill="#404040"/>
<path d="M6 4.40002L4 8.00002H5.2V10.8L7.2 7.20002H6V4.40002Z" fill="#404040"/>
</svg>
