<svg width="18" height="18" viewBox="0 0 18 18" fill="none" xmlns="http://www.w3.org/2000/svg">
<path d="M9.09998 0.95C4.66155 0.95 1.04998 4.56157 1.04998 9C1.04998 13.4384 4.66155 17.05 9.09998 17.05C13.5384 17.05 17.15 13.4384 17.15 9C17.15 4.56157 13.5384 0.95 9.09998 0.95ZM9.09998 16.0851C5.19245 16.0851 2.01484 12.9075 2.01484 9C2.01484 5.09248 5.19245 1.91486 9.09998 1.91486C13.0075 1.91486 16.1851 5.09248 16.1851 9C16.1851 12.9075 13.0075 16.0851 9.09998 16.0851Z" fill="#404040" stroke="#404040" stroke-width="0.1"/>
<path d="M9.1 0.850024C4.60635 0.850024 0.95 4.50637 0.95 9.00002C0.95 13.4937 4.60635 17.15 9.1 17.15C13.5937 17.15 17.25 13.4937 17.25 9.00002C17.25 4.50637 13.5937 0.850024 9.1 0.850024ZM9.1 15.9852C5.24771 15.9852 2.11486 12.8523 2.11486 9.00002C2.11486 5.14773 5.24771 2.01489 9.1 2.01489C12.9523 2.01489 16.0851 5.14773 16.0851 9.00002C16.0851 12.8523 12.9523 15.9852 9.1 15.9852ZM1.15 9.00002C1.15 4.61683 4.7168 1.05002 9.1 1.05002C13.4832 1.05002 17.05 4.61683 17.05 9.00002C17.05 13.3832 13.4832 16.95 9.1 16.95C4.7168 16.95 1.15 13.3832 1.15 9.00002ZM1.91486 9.00002C1.91486 12.9628 5.13725 16.1852 9.1 16.1852C13.0628 16.1852 16.2851 12.9628 16.2851 9.00002C16.2851 5.03728 13.0628 1.81489 9.1 1.81489C5.13725 1.81489 1.91486 5.03728 1.91486 9.00002Z" fill="#404040" stroke="#404040" stroke-width="0.1"/>
<path d="M12.3433 4.24329C11.8676 4.24329 11.4784 4.63248 11.4784 5.10815C11.4784 5.43248 11.6514 5.71356 11.9109 5.84329V8.78383H9.53248V5.84329C9.79194 5.69194 9.96492 5.41085 9.96492 5.10815C9.96492 4.63248 9.57573 4.24329 9.10005 4.24329C8.62438 4.24329 8.23519 4.63248 8.23519 5.10815C8.23519 5.43248 8.40816 5.71356 8.66762 5.84329V8.78383H6.28924V5.84329C6.5487 5.69194 6.72167 5.41085 6.72167 5.10815C6.72167 4.63248 6.33248 4.24329 5.85681 4.24329C5.38113 4.24329 4.99194 4.63248 4.99194 5.10815C4.99194 5.43248 5.16492 5.71356 5.42438 5.84329V12.1352C5.16492 12.2865 4.99194 12.5676 4.99194 12.8703C4.99194 13.346 5.38113 13.7352 5.85681 13.7352C6.33248 13.7352 6.72167 13.346 6.72167 12.8703C6.72167 12.546 6.5487 12.2649 6.28924 12.1352V9.64869H8.66762V12.1568C8.40816 12.3082 8.23519 12.5892 8.23519 12.8919C8.23519 13.3676 8.62438 13.7568 9.10005 13.7568C9.57573 13.7568 9.96492 13.3676 9.96492 12.8919C9.96492 12.5676 9.79194 12.2865 9.53248 12.1568V9.64869H11.9109C12.3865 9.64869 12.7757 9.2595 12.7757 8.78383V5.84329C13.0352 5.69194 13.2082 5.41085 13.2082 5.10815C13.2082 4.63248 12.819 4.24329 12.3433 4.24329Z" fill="#404040"/>
</svg>
