<svg width="16" height="16" viewBox="0 0 16 16" fill="none" xmlns="http://www.w3.org/2000/svg">
<path d="M9.7456 11.4683H6.51236C6.20605 11.4683 5.9696 11.7284 5.9696 12.0114V12.7429C5.9696 13.026 6.20605 13.2624 6.51236 13.2624H9.7456C10.0286 13.2624 10.2884 13.0258 10.2884 12.7429V12.0114C10.2884 11.7284 10.0286 11.4683 9.7456 11.4683ZM9.91076 12.7429C9.91076 12.8373 9.83983 12.9083 9.7456 12.9083H6.51236C6.39449 12.9083 6.32374 12.8373 6.32374 12.7429V12.0114C6.32374 11.9173 6.39449 11.8464 6.51236 11.8464H9.7456C9.83983 11.8464 9.91076 11.9173 9.91076 12.0114V12.7429Z" fill="#404040"/>
<path d="M7.99929 0C3.58667 0 0 3.58773 0 8.00018C0 12.413 3.58667 16 7.99929 16C12.3886 16 15.9755 12.413 15.9755 8.00018C15.9755 3.58773 12.3886 0 7.99929 0ZM14.3468 10.4066L13.3561 10.0057L13.238 10.2887L14.2292 10.6903C13.9221 11.3977 13.5211 12.0114 13.0018 12.578L12.2466 11.7993L11.8219 12.2469L12.5771 13.0025C11.35 14.1115 9.7456 14.7961 7.99929 14.7961C6.22969 14.7961 4.62471 14.1115 3.39769 13.0025L4.17653 12.2469L3.728 11.7993L2.9728 12.578C2.47733 12.0352 2.07609 11.4448 1.7696 10.7612L2.78436 10.3596L2.66631 10.0528L1.6512 10.4772C1.392 9.7936 1.22667 9.06204 1.20284 8.30667H2.26489V7.66951H1.20284C1.22649 6.93796 1.36818 6.23058 1.62791 5.56942L2.64284 5.97031L2.76053 5.68729L1.74596 5.28569C2.05244 4.57831 2.45351 3.96462 2.9728 3.39769L3.728 4.15289L4.17653 3.72889L3.39769 2.95022C3.94044 2.47769 4.53031 2.0768 5.21458 1.7696L5.61582 2.78524L5.92284 2.64267L5.49796 1.65191C6.18258 1.39253 6.91378 1.22756 7.66898 1.18009V2.2656H8.30596V1.18009C9.03751 1.22756 9.7456 1.36907 10.4062 1.62844L10.0052 2.61956L10.2885 2.73796L10.6896 1.74631C12.2469 2.40729 13.4974 3.65849 14.2057 5.19164L13.1913 5.61671L13.3328 5.89973L14.3237 5.4992C14.5835 6.15929 14.7484 6.91467 14.7957 7.66969H13.7104V8.30684H14.7957C14.7481 9.03822 14.6068 9.74667 14.3468 10.4066Z" fill="#404040"/>
<path d="M8.94329 7.33917C8.84907 6.67855 8.23502 6.20601 7.55111 6.30113C6.88996 6.39517 6.41813 7.0085 6.51236 7.69313C6.60711 8.3541 7.22062 8.82557 7.88107 8.73117C8.11716 8.7077 8.30578 8.6133 8.47129 8.49561L12.6244 11.2089L8.84907 8.00015C8.94329 7.78735 8.96676 7.5749 8.94329 7.33917Z" fill="#404040"/>
<path d="M9.20249 12.2002H8.84889C8.73049 12.2002 8.65991 12.2708 8.65991 12.3648C8.65991 12.4834 8.73049 12.5543 8.84889 12.5543H9.20249C9.29707 12.5543 9.39147 12.4834 9.39147 12.3648C9.39165 12.2708 9.29725 12.2002 9.20249 12.2002Z" fill="#404040"/>
<path d="M7.4091 12.2002H7.03221C6.93728 12.2002 6.8667 12.2708 6.8667 12.3648C6.8667 12.4834 6.93728 12.5543 7.03221 12.5543H7.4091C7.50403 12.5543 7.57461 12.4834 7.57461 12.3648C7.57461 12.2708 7.50403 12.2002 7.4091 12.2002Z" fill="#404040"/>
<path d="M8.30594 12.2002H7.95216C7.83394 12.2002 7.76318 12.2708 7.76318 12.3648C7.76318 12.4834 7.83394 12.5543 7.95216 12.5543H8.30594C8.40052 12.5543 8.47145 12.4834 8.47145 12.3648C8.47145 12.2708 8.40052 12.2002 8.30594 12.2002Z" fill="#404040"/>
</svg>
