<svg width="29" height="25" viewBox="0 0 29 25" fill="none" xmlns="http://www.w3.org/2000/svg">
<path d="M22.5725 20.7741V20.2741H22.0725H17.5282C17.4458 20.2741 17.379 20.2074 17.379 20.125C17.379 20.0426 17.4458 19.9758 17.5282 19.9758H22.0725C22.5135 19.9758 22.8709 20.3332 22.8709 20.7741V22.0725V22.5725H23.3709H25.9677H26.4677V22.0725V13.5982C26.4677 12.7434 26.1155 11.9332 25.5017 11.3509C25.1074 10.9768 25.194 10.3267 25.6724 10.0689L27.4887 9.09005L27.688 8.98263L27.7387 8.76198C27.7766 8.59731 27.7763 8.405 27.7304 8.23285L27.7304 8.23283L27.5777 7.66126L27.4786 7.29031H27.0946H23.4531C23.115 7.29031 22.8135 7.07732 22.7006 6.75864L21.9329 4.59275C21.6785 3.8749 20.9995 3.39515 20.2379 3.39515H17.5282C17.4458 3.39515 17.379 3.32836 17.379 3.24596C17.379 3.16356 17.4458 3.09677 17.5282 3.09677H20.2379C21.1258 3.09677 21.9175 3.65611 22.2142 4.49307L22.9818 6.65896L23.0998 6.99192H23.4531H27.5502C27.5522 6.99192 27.5589 6.99207 27.5724 6.99853C27.587 7.00549 27.6108 7.02062 27.6404 7.05132C27.701 7.11442 27.771 7.22888 27.817 7.40085L27.817 7.40091L28.0186 8.15581C28.0186 8.15582 28.0186 8.15582 28.0186 8.15583C28.0845 8.40254 28.0766 8.67182 28.0125 8.89482C27.9451 9.12925 27.8395 9.23989 27.7798 9.27209C27.7798 9.27209 27.7798 9.2721 27.7798 9.27211L25.814 10.3315L25.3032 10.6068L25.6509 11.0713L26.4113 12.0872C26.6401 12.5472 26.7661 13.0621 26.7661 13.5982V22.5173C26.7661 22.7042 26.6093 22.8709 26.3971 22.8709H22.9415C22.7293 22.8709 22.5725 22.7042 22.5725 22.5173V20.7741ZM6.49192 20.2741H5.99192V20.7741V22.5173C5.99192 22.7042 5.83515 22.8709 5.62299 22.8709H2.16731C1.95516 22.8709 1.79838 22.7042 1.79838 22.5173V13.5982C1.79838 13.0621 1.92434 12.5472 2.1531 12.0872L2.91353 11.0713L3.26123 10.6068L2.75046 10.3316L0.784676 9.27211C0.784662 9.2721 0.784647 9.2721 0.784632 9.27209C0.724965 9.2399 0.619391 9.12926 0.551976 8.89482C0.487848 8.67181 0.479932 8.40253 0.545829 8.15581L0.545833 8.1558L0.747432 7.4009C0.747433 7.4009 0.747435 7.40089 0.747437 7.40088C0.793378 7.22889 0.863394 7.11442 0.924066 7.05132C0.953582 7.02062 0.977425 7.0055 0.991998 6.99853C1.00553 6.99207 1.01222 6.99192 1.01428 6.99192H5.11136H5.46462L5.58263 6.65896L6.35029 4.49307C6.64693 3.65611 7.43862 3.09677 8.3266 3.09677H11.0363C11.1187 3.09677 11.1855 3.16356 11.1855 3.24596C11.1855 3.32836 11.1187 3.39515 11.0363 3.39515H8.3266C7.56499 3.39515 6.88596 3.8749 6.63153 4.59275L5.86388 6.75864C5.75092 7.07732 5.44947 7.29031 5.11136 7.29031H1.4698H1.08581L0.986732 7.6613L0.834108 8.23281C0.834106 8.23282 0.834105 8.23282 0.834103 8.23283C0.788124 8.40499 0.787846 8.5973 0.825728 8.76198L0.876482 8.98263L1.07579 9.09005L2.89202 10.0689C3.37045 10.3267 3.45702 10.9768 3.06274 11.3509C2.44897 11.9332 2.09677 12.7435 2.09677 13.5982V22.0725V22.5725H2.59677H5.19354H5.69354V22.0725V20.7741C5.69354 20.3332 6.05099 19.9758 6.49192 19.9758H11.0363C11.1187 19.9758 11.1855 20.0426 11.1855 20.125C11.1855 20.2074 11.1187 20.2741 11.0363 20.2741H6.49192ZM8.22795 15.1281L8.22803 15.1281C8.30044 15.1371 8.35997 15.169 8.39723 15.2064C8.43185 15.241 8.44442 15.2758 8.44442 15.3105V15.5013L5.96093 15.4088C5.81697 15.4034 5.69354 15.274 5.69354 15.1329V14.8149L8.22795 15.1281ZM20.3364 15.1281L20.3365 15.1281L22.8709 14.8149V15.1329C22.8709 15.274 22.7475 15.4034 22.6035 15.4088L20.12 15.5013V15.3105C20.12 15.2758 20.1326 15.241 20.1672 15.2064C20.2045 15.169 20.264 15.1371 20.3364 15.1281ZM14.2822 0.5C14.3646 0.5 14.4314 0.566795 14.4314 0.649192V24.0201C14.4314 24.1025 14.3646 24.1693 14.2822 24.1693C14.1998 24.1693 14.133 24.1025 14.133 24.0201V0.649192C14.133 0.566796 14.1998 0.5 14.2822 0.5Z" fill="black" stroke="white"/>
</svg>
