<svg width="23" height="23" viewBox="0 0 23 23" fill="none" xmlns="http://www.w3.org/2000/svg">
<path d="M2.60621 0C1.20036 0 0.00133288 1.05109 0.00133288 2.39851V16.3383C-0.00385455 16.4117 0.00613529 16.4855 0.03068 16.5549C0.0552248 16.6243 0.0937991 16.688 0.144001 16.7418C0.194203 16.7957 0.254958 16.8387 0.322483 16.868C0.390008 16.8974 0.462857 16.9126 0.536494 16.9126C0.610132 16.9126 0.682982 16.8974 0.750507 16.868C0.818032 16.8387 0.878787 16.7957 0.928989 16.7418C0.979191 16.688 1.01776 16.6243 1.04231 16.5549C1.06685 16.4855 1.07684 16.4117 1.07166 16.3383V2.39851C1.07166 1.69317 1.71638 1.0832 2.60621 1.0832H16.3267C16.4704 1.0832 16.6081 1.02615 16.7097 0.924577C16.8113 0.823007 16.8683 0.68524 16.8683 0.541599C16.8683 0.397958 16.8113 0.260216 16.7097 0.158646C16.6081 0.0570769 16.4704 0 16.3267 0H2.60621ZM19.1637 0C19.02 0 18.8823 0.0570769 18.7807 0.158646C18.6791 0.260216 18.6221 0.397958 18.6221 0.541599C18.6221 0.68524 18.6791 0.823007 18.7807 0.924577C18.8823 1.02615 19.02 1.0832 19.1637 1.0832H20.6466L15.9012 5.82864C15.8374 5.87379 15.7844 5.93231 15.7456 6.0001C15.7068 6.06789 15.6834 6.1433 15.6768 6.22111C15.6702 6.29892 15.6807 6.37724 15.7075 6.45058C15.7343 6.52392 15.7768 6.59051 15.832 6.64572C15.8872 6.70093 15.9538 6.74343 16.0271 6.77024C16.1005 6.79705 16.1788 6.80753 16.2566 6.80094C16.3344 6.79435 16.4098 6.77086 16.4776 6.73211C16.5454 6.69335 16.6039 6.64027 16.6491 6.57656L21.3945 1.83112V3.31404C21.3945 3.45769 21.4516 3.59545 21.5531 3.69702C21.6547 3.79859 21.7925 3.85564 21.9361 3.85564C22.0798 3.85564 22.2175 3.79859 22.3191 3.69702C22.4207 3.59545 22.4777 3.45769 22.4777 3.31404V0.541599C22.4768 0.506879 22.4725 0.472329 22.4649 0.438437C22.465 0.434173 22.465 0.429907 22.4649 0.425643C22.4611 0.412556 22.4569 0.399619 22.4521 0.386856C22.4522 0.382593 22.4522 0.378326 22.4521 0.374062C22.4484 0.360975 22.4441 0.348038 22.4393 0.335276C22.4351 0.33094 22.4309 0.326673 22.4265 0.322481C22.4157 0.295702 22.4027 0.269851 22.3878 0.24516C22.3836 0.240825 22.3793 0.236558 22.375 0.232366C22.3667 0.223552 22.3582 0.215015 22.3494 0.206777C22.3494 0.202513 22.3494 0.198246 22.3494 0.193982C22.3414 0.180689 22.3329 0.16775 22.3238 0.155196C22.3195 0.155145 22.3153 0.155145 22.311 0.155196C22.3026 0.146376 22.294 0.137838 22.285 0.129607C22.2768 0.120794 22.2682 0.112281 22.2594 0.104043C22.2509 0.0995459 22.2422 0.095278 22.2334 0.0912488C22.2292 0.0911979 22.2249 0.0911979 22.2206 0.0912488C22.2124 0.0822957 22.2039 0.0736299 22.195 0.0652568C22.1908 0.065206 22.1865 0.065206 22.1823 0.0652568C22.1697 0.0561726 22.1568 0.0476317 22.1435 0.0396679C22.1392 0.0396171 22.1349 0.0396171 22.1307 0.0396679C22.1179 0.0349131 22.105 0.0306435 22.0919 0.0268734C22.0876 0.0268226 22.0834 0.0268226 22.0791 0.0268734C22.0663 0.0221186 22.0534 0.0178491 22.0403 0.014079C22.036 0.0140281 22.0318 0.0140281 22.0275 0.014079C21.9978 0.00726264 21.9677 0.00298076 21.9373 0.00128448H21.8728H19.1648L19.1637 0ZM21.9232 5.59652C21.7814 5.59858 21.6461 5.65672 21.5471 5.75822C21.448 5.85971 21.3932 5.9963 21.3945 6.13812V20.0908C21.3945 20.7927 20.7498 21.4061 19.86 21.4061H6.13945C6.066 21.4009 5.99226 21.4109 5.92284 21.4354C5.85341 21.46 5.78978 21.4986 5.73591 21.5488C5.68204 21.599 5.63908 21.6597 5.6097 21.7272C5.58033 21.7948 5.56517 21.8676 5.56517 21.9413C5.56517 22.0149 5.58033 22.0877 5.6097 22.1552C5.63908 22.2228 5.68204 22.2836 5.73591 22.3338C5.78978 22.384 5.85341 22.4225 5.92284 22.447C5.99226 22.4716 6.066 22.4816 6.13945 22.4764H19.86C21.2658 22.4764 22.4777 21.4416 22.4777 20.0908V6.13812C22.4784 6.0657 22.4645 5.99388 22.4367 5.92699C22.409 5.8601 22.3679 5.79953 22.3161 5.74892C22.2643 5.69832 22.2028 5.65873 22.1352 5.63254C22.0677 5.60635 21.9956 5.59409 21.9232 5.59652ZM6.12658 15.7451C6.0075 15.7645 5.89847 15.8236 5.81709 15.9127L1.07166 20.6452V19.1752C1.07305 19.0981 1.05779 19.0216 1.02691 18.9509C0.996035 18.8801 0.950271 18.8169 0.89274 18.7655C0.83521 18.7141 0.767268 18.6757 0.693547 18.6529C0.619826 18.6302 0.542062 18.6236 0.465561 18.6336C0.335245 18.6513 0.215967 18.7162 0.130384 18.8161C0.0448015 18.9159 -0.00112395 19.0437 0.00133288 19.1752V21.8445C0.000508175 21.8617 0.000508175 21.8789 0.00133288 21.8961V21.9477C0.00128218 21.952 0.00128218 21.9562 0.00133288 21.9604C0.00236782 22.013 0.011127 22.0652 0.0273295 22.1152C0.0458213 22.1661 0.0718921 22.2139 0.10466 22.257C0.133235 22.3005 0.167987 22.3396 0.207822 22.3731C0.220377 22.3822 0.233318 22.3907 0.24661 22.3987C0.309287 22.4385 0.379544 22.4649 0.452934 22.4761C0.504245 22.4836 0.556365 22.4836 0.607676 22.4761H3.30276C3.37621 22.4813 3.44995 22.4713 3.51937 22.4468C3.5888 22.4222 3.65243 22.3837 3.7063 22.3335C3.76017 22.2833 3.80314 22.2225 3.83251 22.155C3.86188 22.0875 3.87704 22.0146 3.87704 21.941C3.87704 21.8673 3.86188 21.7945 3.83251 21.7269C3.80314 21.6594 3.76017 21.5987 3.7063 21.5485C3.65243 21.4983 3.5888 21.4597 3.51937 21.4351C3.44995 21.4106 3.37621 21.4006 3.30276 21.4058H1.83274L6.57818 16.6604C6.65948 16.5813 6.71366 16.4786 6.73293 16.3668C6.7522 16.2551 6.73557 16.1401 6.68544 16.0384C6.63531 15.9368 6.55424 15.8535 6.45388 15.8008C6.35352 15.748 6.23903 15.7284 6.12683 15.7448L6.12658 15.7451Z" fill="white"/>
</svg>
