<svg width="25" height="15" viewBox="0 0 25 15" fill="none" xmlns="http://www.w3.org/2000/svg">
<path d="M24.8763 6.68151L24.4534 6.17406C23.4861 5.00818 22.3782 3.96655 21.155 3.07293C18.4203 1.0713 15.432 0 12.5 0C9.56803 0 6.57967 1.0713 3.84504 3.07293C2.62327 3.95758 1.5154 4.9897 0.546573 6.14586L0.123693 6.68151C0.0436253 6.78152 0 6.90581 0 7.03391C0 7.16202 0.0436253 7.28631 0.123693 7.38631L0.546573 7.89377C1.51664 9.04876 2.62436 10.0807 3.84504 10.9667C6.57967 12.9683 9.56803 14.0396 12.5 14.0396C15.432 14.0396 18.4203 12.9683 21.155 10.9667C22.3756 10.0807 23.4834 9.04876 24.4534 7.89377L24.8763 7.38631C24.9564 7.28631 25 7.16202 25 7.03391C25 6.90581 24.9564 6.78152 24.8763 6.68151ZM12.5 12.63C11.3904 12.63 10.3057 12.301 9.38313 11.6845C8.46054 11.0681 7.74146 10.1919 7.31684 9.16675C6.89221 8.14162 6.78111 7.01359 6.99758 5.92532C7.21405 4.83704 7.74837 3.8374 8.53298 3.0528C9.31758 2.26819 10.3172 1.73387 11.4055 1.5174C12.4938 1.30093 13.6218 1.41203 14.6469 1.83665C15.6721 2.26128 16.5483 2.98035 17.1647 3.90295C17.7812 4.82554 18.1102 5.91022 18.1102 7.01982C18.1102 7.75656 17.9651 8.48609 17.6832 9.16675C17.4012 9.84742 16.988 10.4659 16.467 10.9868C15.9461 11.5078 15.3276 11.921 14.6469 12.203C13.9663 12.4849 13.2367 12.63 12.5 12.63ZM1.42053 7.18897L1.27957 7.01982L1.42053 6.85067C2.32678 5.78158 3.35853 4.82556 4.49346 4.00327C5.57018 3.19964 6.74491 2.53648 7.98927 2.02983C7.28929 2.65905 6.72951 3.42851 6.34633 4.2882C5.96314 5.1479 5.76511 6.07859 5.76511 7.01982C5.76511 7.96104 5.96314 8.89174 6.34633 9.75143C6.72951 10.6111 7.28929 11.3806 7.98927 12.0098C6.74478 11.5034 5.57001 10.8403 4.49346 10.0364C3.35729 9.21558 2.32538 8.2594 1.42053 7.18897ZM23.5795 7.18897C22.6746 8.2594 21.6427 9.21558 20.5065 10.0364C19.43 10.8403 18.2552 11.5034 17.0107 12.0098C17.7107 11.3806 18.2705 10.6111 18.6537 9.75143C19.0369 8.89174 19.2349 7.96104 19.2349 7.01982C19.2349 6.07859 19.0369 5.1479 18.6537 4.2882C18.2705 3.42851 17.7107 2.65905 17.0107 2.02983C18.2551 2.53648 19.4298 3.19964 20.5065 4.00327C21.6415 4.82556 22.6732 5.78158 23.5795 6.85067L23.7204 7.01982L23.5795 7.18897Z" fill="#FFE9E9"/>
</svg>
