<svg width="161" height="34" viewBox="0 0 161 34" fill="none" xmlns="http://www.w3.org/2000/svg">
<path d="M50.5525 17.7466C50.5473 17.7441 49.7546 17.3495 49.3541 17.1779C48.9464 16.9999 48.5338 16.8444 48.1182 16.6968C47.2831 16.4074 46.4431 16.1542 45.5908 15.9546C44.7396 15.7555 43.882 15.5986 43.021 15.4823C42.161 15.364 41.2966 15.2895 40.4322 15.252C40.0005 15.2339 39.5687 15.226 39.1361 15.2279C38.937 15.2266 38.6969 15.2323 38.4883 15.2372C38.2791 15.2441 38.0677 15.2539 37.8523 15.2676C36.9972 15.3238 36.1435 15.4319 35.2901 15.5713C34.4383 15.7161 33.5863 15.891 32.7351 16.0846C31.8838 16.2818 31.0312 16.4928 30.1765 16.7056C29.3214 16.9227 28.4628 17.1387 27.5992 17.3416C26.7354 17.5489 25.8656 17.7392 24.9883 17.9054C24.1122 18.0765 23.2273 18.2109 22.3383 18.3166C21.4479 18.4198 20.5526 18.482 19.6546 18.4984C18.7573 18.5107 17.8568 18.4803 16.9615 18.3839C16.0681 18.287 15.1769 18.1531 14.2997 17.9409C13.4241 17.7293 12.5567 17.478 11.7143 17.1508C10.8699 16.831 10.0436 16.4581 9.24573 16.0282C10.0945 16.3143 10.9476 16.5684 11.8068 16.7768C12.2361 16.8794 12.6668 16.9693 13.098 17.0544C13.5303 17.133 13.9621 17.2055 14.3952 17.2578C15.2621 17.3687 16.1305 17.4407 16.9979 17.4544C17.8653 17.4681 18.7321 17.4407 19.5951 17.3704C20.4581 17.3025 21.3176 17.1918 22.1743 17.0511C23.0315 16.9131 23.8841 16.7382 24.7367 16.549C25.5879 16.3579 26.4392 16.1446 27.2896 15.928L29.8512 15.2616C30.7087 15.039 31.5712 14.8235 32.4421 14.6319C32.8777 14.5349 33.3163 14.4435 33.7563 14.3575C34.1963 14.2748 34.6387 14.2006 35.0837 14.1341C35.5286 14.0681 35.976 14.0134 36.4244 13.9687C36.8743 13.9266 37.3266 13.8992 37.7797 13.883C38.005 13.8757 38.2328 13.8718 38.4647 13.8724C38.6975 13.8743 38.8984 13.8754 39.1399 13.888C39.5898 13.9066 40.0396 13.9364 40.4889 13.9775C41.3861 14.061 42.2798 14.1952 43.1658 14.3775C43.6088 14.4679 44.048 14.576 44.486 14.6894C44.9227 14.8126 45.3578 14.9396 45.7876 15.0864C46.6493 15.3739 47.4975 15.7098 48.3183 16.1131C49.1402 16.5164 49.9392 16.9613 50.691 17.5251L51.9193 18.4727L50.5525 17.7466Z" fill="#CF1022"/>
<path d="M106.428 7.15672C104.333 6.43226 102.215 5.77981 100.093 5.1301C97.971 4.48175 95.8255 3.90186 93.6688 3.3529C91.5094 2.81654 89.3369 2.30618 87.1394 1.90371C84.9419 1.49904 82.728 1.15515 80.4996 0.890119C78.2693 0.630015 76.0225 0.491748 73.7722 0.4233C71.5214 0.357315 69.2645 0.423848 67.0158 0.566221C64.7663 0.714344 62.5245 0.969519 60.3002 1.31669C58.0756 1.6614 55.8683 2.10002 53.684 2.61338C51.4942 3.11607 49.3369 3.72471 47.192 4.36183C46.1218 4.6871 45.0529 5.01647 43.9889 5.38116C42.9148 5.7308 41.8758 6.10042 40.8354 6.47004L39.2791 7.0127C38.7701 7.19313 38.2611 7.37219 37.7459 7.53045C36.721 7.86776 35.6845 8.16757 34.6435 8.44629C32.561 8.99963 30.4476 9.43578 28.3172 9.73942C27.7833 9.81662 27.2505 9.89001 26.7155 9.94285C26.1805 10.0083 25.6453 10.0529 25.1089 10.0967C24.0373 10.1936 22.9634 10.2468 21.8883 10.2684C19.739 10.3084 17.5856 10.2005 15.4588 9.91245C14.3942 9.77309 13.3401 9.57651 12.2959 9.34926C11.7746 9.23591 11.2579 9.10476 10.7479 8.96157C10.2476 8.81974 9.71237 8.64971 9.28306 8.4838L8.37707 8.13334L1.48705 5.38308C0.154765 4.99539 -0.167218 5.32257 0.0731735 6.00021C0.0707094 5.9972 0.0685207 5.99419 0.0663304 5.9909C0.0663304 5.9909 5.57069 24.6612 42.7916 9.09463C44.5674 8.50105 46.317 7.95099 48.1024 7.41956C50.1961 6.80462 52.3005 6.2354 54.4199 5.74312C55.4751 5.47918 56.5405 5.26644 57.6025 5.03618C58.6687 4.83604 59.7332 4.61947 60.8051 4.45382C62.9434 4.08557 65.0935 3.81178 67.2515 3.63189C69.4101 3.43832 71.5756 3.32634 73.7446 3.32497C75.913 3.30635 78.0858 3.39041 80.2576 3.5284C82.4293 3.67844 84.6008 3.90596 86.7692 4.19481C88.9344 4.499 91.1023 4.83823 93.2655 5.22099C95.4282 5.61115 97.5835 6.05798 99.7454 6.49715C104.061 7.40751 108.366 8.41617 112.691 9.37746C110.616 8.60591 108.53 7.86037 106.428 7.15672Z" fill="#CF1022"/>
<path d="M50.0526 11.6647C51.1116 10.8546 58.9429 9.71339 63.3447 10.5246C65.0795 10.8444 71.2108 12.499 76.3009 13.2054C84.2933 14.3153 93.1697 14.3846 104.815 13.198C113.252 12.338 120.794 11.6686 128.542 12.1291C138.3 12.709 148.383 15.0808 160.991 21.1254C161.4 21.322 147.482 15.3932 130.885 14.668C119.734 14.1806 105.378 15.9178 95.5218 16.8613C57.5915 20.4905 49.0787 12.4103 50.0526 11.6647Z" fill="#CF1022"/>
<path d="M13.1212 26.8247C13.3763 27.4945 13.5922 28.065 13.7688 28.5357C13.9452 29.0065 14.0872 29.4068 14.1951 29.7367C14.3031 29.5622 14.4208 29.3852 14.5481 29.2058C14.6757 29.0262 14.8204 28.8219 14.9823 28.5937C15.144 28.3655 15.3304 28.1106 15.5414 27.8292C15.7521 27.5479 15.9999 27.2172 16.2844 26.8392L18.359 24.0726C18.5844 23.7618 18.8469 23.5115 19.1465 23.3229C19.4452 23.1336 19.8012 23.0383 20.213 23.0383C20.5957 23.0383 20.9214 23.1476 21.1916 23.3664C21.4614 23.5846 21.6206 23.9218 21.6697 24.3785L22.6408 32.9406H19.6098L19.2713 29.5479C19.2222 28.9943 19.183 28.5088 19.1535 28.0914C19.1241 27.6744 19.1047 27.2668 19.0947 26.8684C18.9867 27.0429 18.8717 27.2204 18.749 27.4C18.6264 27.5797 18.489 27.7788 18.3372 27.997C18.1851 28.2155 18.0183 28.4508 17.837 28.7032C17.6552 28.956 17.4516 29.2422 17.2262 29.5624L15.4754 32.0089C15.2988 32.2517 15.1344 32.4434 14.9826 32.584C14.8302 32.7251 14.676 32.8343 14.519 32.9115C14.362 32.9894 14.205 33.0404 14.0482 33.0647C13.8912 33.0887 13.7195 33.1008 13.5333 33.1008C13.3469 33.1008 13.1774 33.0887 13.0258 33.0647C12.8734 33.0401 12.7336 32.9894 12.6063 32.9115C12.4788 32.8343 12.3635 32.7253 12.2601 32.584C12.1574 32.4434 12.0617 32.2519 11.9734 32.0089L11.0908 29.5481C10.9731 29.2182 10.8676 28.9218 10.7743 28.6598C10.6811 28.3973 10.6002 28.1618 10.5318 27.9536C10.4631 27.7448 10.4015 27.5533 10.3478 27.3785C10.2935 27.2039 10.2423 27.034 10.1932 26.8684C10.046 27.2277 9.87431 27.6328 9.67806 28.0847C9.48153 28.536 9.2711 29.0237 9.04568 29.5481L7.51519 32.9409H4.52832L8.58913 24.3788C8.81455 23.9221 9.10429 23.5849 9.45727 23.3666C9.81026 23.1479 10.178 23.0386 10.5607 23.0386C10.9529 23.0386 11.2669 23.1311 11.5024 23.3156C11.7379 23.5002 11.9194 23.7521 12.047 24.0729L13.1212 26.8247Z" fill="black"/>
<path d="M31.8393 23.0383C33.9766 23.0383 35.5774 23.3712 36.6416 24.0359C37.7054 24.7012 38.2373 25.7427 38.2373 27.1595C38.2373 29.1601 37.561 30.6498 36.2079 31.6301C34.8545 32.6112 32.8003 33.1008 30.0448 33.1008C27.9073 33.1008 26.3065 32.7663 25.2425 32.096C24.1785 31.4267 23.6466 30.383 23.6466 28.9656C23.6466 26.9658 24.3234 25.4778 25.6765 24.5018C27.0299 23.5263 29.0841 23.0383 31.8393 23.0383ZM30.4862 30.5669C31.4767 30.5669 32.2783 30.5235 32.8911 30.4364C33.5039 30.3487 33.9799 30.1887 34.3177 29.9559C34.6561 29.7228 34.8842 29.4048 35.0016 29.002C35.1191 28.5993 35.1779 28.087 35.1779 27.4657C35.1779 27.0775 35.1068 26.7595 34.9646 26.5116C34.8226 26.2645 34.597 26.0702 34.288 25.9291C33.9793 25.7886 33.5842 25.6936 33.1041 25.6451C32.6235 25.5968 32.0499 25.5722 31.3835 25.5722C30.393 25.5722 29.5939 25.6165 28.986 25.7033C28.3781 25.791 27.9048 25.951 27.5667 26.1841C27.2283 26.4169 27.0005 26.7352 26.8828 27.138C26.7648 27.5407 26.7059 28.0527 26.7059 28.6743C26.7059 29.0722 26.7795 29.3927 26.9266 29.6352C27.0738 29.8777 27.2991 30.0698 27.6032 30.2103C27.9073 30.3511 28.2966 30.4461 28.7726 30.4946C29.2484 30.5429 29.8192 30.5669 30.4862 30.5669Z" fill="black"/>
<path d="M52.8279 23.0383L50.3929 25.6556H46.9012L45.6103 33.1008H42.5738L43.8498 25.6556H39.2435L41.6789 23.0383H52.8279Z" fill="black"/>
<path d="M59.008 23.0383C61.1456 23.0383 62.7461 23.3712 63.8104 24.0359C64.8742 24.7012 65.4061 25.7427 65.4061 27.1595C65.4061 29.1601 64.7295 30.6498 63.3764 31.6301C62.023 32.6112 59.9688 33.1008 57.2135 33.1008C55.0759 33.1008 53.4751 32.7663 52.4113 32.096C51.3473 31.4267 50.8154 30.383 50.8154 28.9656C50.8154 26.9658 51.492 25.4778 52.8451 24.5018C54.1985 23.5263 56.2525 23.0383 59.008 23.0383ZM57.6546 30.5669C58.6454 30.5669 59.4467 30.5235 60.0595 30.4364C60.6723 30.3487 61.1481 30.1887 61.4862 29.9559C61.8246 29.7228 62.0524 29.4048 62.1701 29.002C62.2878 28.5993 62.3464 28.087 62.3464 27.4657C62.3464 27.0775 62.2753 26.7595 62.1333 26.5116C61.9914 26.2645 61.7658 26.0702 61.4568 25.9291C61.1481 25.7886 60.753 25.6936 60.2729 25.6451C59.7922 25.5968 59.2186 25.5722 58.5519 25.5722C57.5614 25.5722 56.7625 25.6165 56.1546 25.7033C55.5465 25.791 55.0732 25.951 54.7353 26.1841C54.3969 26.4169 54.1691 26.7352 54.0511 27.138C53.9331 27.5407 53.8745 28.0527 53.8745 28.6743C53.8745 29.0722 53.9484 29.3927 54.0955 29.6352C54.2424 29.8777 54.4677 30.0698 54.7718 30.2103C55.0759 30.3511 55.4655 30.4461 55.9413 30.4946C56.4168 30.5429 56.9879 30.5669 57.6546 30.5669Z" fill="black"/>
<path d="M80.4422 33.1008H76.3556L74.6147 30.4384H69.9236L69.4661 33.1008H66.4124L67.2976 27.9569H75.8836C76.1392 27.9569 76.3827 27.9265 76.6136 27.8663C76.8448 27.8061 77.0465 27.7212 77.2187 27.6105C77.3909 27.5002 77.5286 27.3623 77.6319 27.197C77.7352 27.0318 77.7866 26.8487 77.7866 26.6481C77.7866 26.3174 77.6541 26.0691 77.3881 25.9033C77.1225 25.7381 76.7541 25.6556 76.2821 25.6556H67.6963L70.1453 23.0383H76.4887C77.0001 23.0383 77.5234 23.0832 78.0599 23.1732C78.5958 23.2638 79.0826 23.4265 79.5204 23.6619C79.9582 23.8982 80.3146 24.2111 80.5901 24.6023C80.8653 24.993 81.003 25.4895 81.003 26.0911C81.003 26.5428 80.9268 26.9738 80.7745 27.3851C80.6215 27.7967 80.4056 28.1673 80.1255 28.4983C79.8451 28.829 79.5081 29.1099 79.1148 29.3403C78.7213 29.5708 78.2886 29.731 77.8167 29.8218C77.9541 29.9522 78.1091 30.1175 78.281 30.3181C78.4532 30.519 78.677 30.7943 78.9525 31.1451L80.4422 33.1008Z" fill="black"/>
<path d="M91.5488 27.0543C92.5984 27.0543 93.3951 27.2474 93.9397 27.6331C94.4837 28.0193 94.7559 28.588 94.7559 29.3404C94.7559 29.8818 94.6695 30.3834 94.4961 30.8443C94.3227 31.306 94.0454 31.7042 93.6654 32.04C93.2848 32.3761 92.7938 32.6372 92.1919 32.8228C91.5898 33.0083 90.8602 33.1008 90.0033 33.1008H81.0032L83.3579 30.5138H90.682C91.0866 30.5138 91.3799 30.4436 91.5633 30.3029C91.746 30.1624 91.8378 29.947 91.8378 29.6564C91.8378 29.2557 91.5341 29.0548 90.9277 29.0548H85.6549C84.5568 29.0548 83.7529 28.8338 83.242 28.3924C82.7317 27.9516 82.4769 27.365 82.4769 26.6327C82.4769 26.1216 82.5634 25.6479 82.7371 25.2116C82.9102 24.7752 83.1872 24.394 83.5675 24.0685C83.948 23.7425 84.4367 23.4892 85.0337 23.3086C85.6305 23.1281 86.3533 23.0383 87.2009 23.0383H95.5938L93.2246 25.6557H86.5217C86.117 25.6557 85.8232 25.7184 85.6404 25.8433C85.4571 25.9692 85.3661 26.1821 85.3661 26.4828C85.3661 26.864 85.6741 27.0546 86.2905 27.0546H91.5488V27.0543Z" fill="black"/>
<path d="M109.179 27.3097C109.179 28.122 108.996 28.8796 108.63 29.581C108.264 30.2834 107.765 30.8951 107.132 31.4161C106.499 31.9375 105.763 32.3485 104.922 32.6494C104.082 32.9501 103.187 33.1008 102.238 33.1008H95.5941L96.6914 26.8282H99.7615L99.1239 30.5139H102.683C103.157 30.5139 103.6 30.4487 104.01 30.3183C104.42 30.1879 104.776 30.0023 105.078 29.7618C105.38 29.5211 105.619 29.2329 105.797 28.8969C105.975 28.5611 106.064 28.1927 106.064 27.7909C106.064 27.4808 106.002 27.1944 105.879 26.9341C105.755 26.6733 105.582 26.4479 105.36 26.2573C105.137 26.0667 104.87 25.9184 104.559 25.8134C104.248 25.7083 103.904 25.6557 103.528 25.6557H96.8843L99.3016 23.0383H103.988C104.769 23.0383 105.479 23.1434 106.116 23.3535C106.754 23.5644 107.3 23.8576 107.755 24.2337C108.21 24.6099 108.561 25.0588 108.808 25.5802C109.055 26.1012 109.179 26.6783 109.179 27.3097Z" fill="#CF1022"/>
<path d="M118.378 23.0383C120.515 23.0383 122.116 23.3712 123.18 24.0359C124.243 24.7012 124.776 25.7427 124.776 27.1595C124.776 29.1601 124.099 30.6498 122.746 31.6301C121.393 32.6112 119.338 33.1008 116.583 33.1008C114.446 33.1008 112.845 32.7663 111.781 32.096C110.717 31.4267 110.185 30.383 110.185 28.9656C110.185 26.9658 110.862 25.4778 112.215 24.5018C113.568 23.5263 115.622 23.0383 118.378 23.0383ZM117.024 30.5669C118.015 30.5669 118.817 30.5235 119.429 30.4364C120.041 30.3487 120.518 30.1887 120.856 29.9559C121.194 29.7228 121.422 29.4048 121.54 29.002C121.658 28.5993 121.716 28.087 121.716 27.4657C121.716 27.0775 121.645 26.7595 121.503 26.5116C121.361 26.2645 121.135 26.0702 120.827 25.9291C120.518 25.7886 120.123 25.6936 119.643 25.6451C119.162 25.5968 118.588 25.5722 117.922 25.5722C116.931 25.5722 116.132 25.6165 115.525 25.7033C114.916 25.791 114.443 25.951 114.105 26.1841C113.767 26.4169 113.539 26.7352 113.421 27.138C113.303 27.5407 113.245 28.0527 113.245 28.6743C113.245 29.0722 113.318 29.3927 113.465 29.6352C113.612 29.8777 113.838 30.0698 114.142 30.2103C114.446 30.3511 114.835 30.4461 115.311 30.4946C115.786 30.5429 116.358 30.5669 117.024 30.5669Z" fill="#CF1022"/>
<path d="M137.565 33.1008H134.448L135.144 29.2201H129.107L128.426 33.1008H125.278L127.079 23.0383H130.211L129.561 26.6028H135.598L136.233 23.0383H139.366L137.565 33.1008Z" fill="#CF1022"/>
<path d="M143.357 33.1008L145.684 30.5559H148.175C148.483 30.5559 148.797 30.5559 149.115 30.5559C149.434 30.5559 149.712 30.5658 149.95 30.5852C149.841 30.4076 149.716 30.1834 149.577 29.9117C149.438 29.6409 149.309 29.3865 149.19 29.1499L147.862 26.5307L142.014 33.1008H138.36L146.355 24.1485C146.614 23.8626 146.922 23.606 147.28 23.3791C147.639 23.1524 148.061 23.0383 148.548 23.0383C149.015 23.0383 149.386 23.145 149.66 23.3566C149.933 23.569 150.155 23.8325 150.323 24.1485L154.963 33.1008H143.357Z" fill="#CF1022"/>
</svg>
