<svg width="30" height="34" viewBox="0 0 30 34" fill="none" xmlns="http://www.w3.org/2000/svg">
<path d="M14.768 14.0063C15.3494 14.0063 16.2113 14.0811 17.012 14.4381L24.968 17.9741V10.2C24.968 8.32325 23.4448 6.80005 21.568 6.80005H7.96799C6.08949 6.80005 4.56799 8.32325 4.56799 10.2V17.9724L12.524 14.4364C13.3247 14.0811 14.1866 14.0063 14.768 14.0063ZM16.468 10.2H21.568V11.9H16.468V10.2ZM7.96799 10.2H13.068V11.9H7.96799V10.2Z" fill="white"/>
<path d="M3.89647 32.4377C4.26537 33.2962 5.33297 34 6.26797 34H13.068C14.003 34 15.533 34 16.468 34H23.2679C24.2029 34 25.2705 33.2962 25.6377 32.4377L29.3964 23.6623C29.7653 22.8038 29.3675 21.7906 28.5124 21.4098L16.3201 15.9902C15.465 15.6094 14.0676 15.6094 13.2125 15.9902L1.02008 21.4098C0.164982 21.7906 -0.231117 22.8038 0.136082 23.6623L3.89647 32.4377Z" fill="white"/>
<path d="M21.568 3.39999H19.868V0H18.168V3.39999H11.368V0H9.66801V3.39999H7.96802V5.09999H21.568V3.39999Z" fill="white"/>
</svg>
