<svg width="31" height="34" viewBox="0 0 31 34" fill="none" xmlns="http://www.w3.org/2000/svg">
<path d="M28.5955 16.6782H26.6271L25.3386 12.7056C24.6944 10.6656 22.7976 9.30566 20.6861 9.30566H9.44831C7.30097 9.30566 5.43994 10.6656 4.79573 12.7056L3.50733 16.6782H1.53893C0.679992 16.6782 0 17.3582 0 18.2171V19.0761C0 19.935 0.679992 20.615 1.53893 20.615H2.07576C1.75366 22.0466 1.61051 23.5139 1.61051 24.9813V32.4612C1.61051 33.3201 2.2905 34.0001 3.14944 34.0001H5.76204C6.62097 34.0001 7.30097 33.3201 7.30097 32.4612V30.0633H22.8692V32.4612C22.8692 33.3201 23.5492 34.0001 24.4081 34.0001H26.9849C27.8439 34.0001 28.5239 33.3201 28.5239 32.4612V24.9813C28.5239 23.5139 28.3449 22.0466 28.0586 20.615H28.5955C29.4544 20.615 30.1344 19.935 30.1344 19.0761V18.2171C30.1344 17.3582 29.4544 16.6782 28.5955 16.6782ZM6.22729 18.2887L7.69465 13.6719C7.94517 12.9204 8.62516 12.4193 9.41252 12.4193H20.6503C21.4376 12.4193 22.1534 12.9204 22.3682 13.6719L23.8355 18.2887C23.9071 18.5034 23.7281 18.7182 23.5134 18.7182H6.5494C6.33466 18.7182 6.19151 18.5034 6.22729 18.2887ZM9.4841 25.8402H6.37045C5.83362 25.8402 5.40415 25.4107 5.40415 24.8739V23.4066C5.40415 22.8339 5.94098 22.3687 6.51361 22.476L9.41252 22.9413C9.8062 23.0129 10.0925 23.2992 10.1999 23.6929L10.4146 24.695C10.5578 25.2676 10.0925 25.8402 9.4841 25.8402ZM24.7302 24.8739C24.7302 25.4107 24.3008 25.8402 23.7639 25.8402H20.6503C20.0419 25.8402 19.5766 25.2676 19.7198 24.695L19.9345 23.6929C20.0061 23.2992 20.3282 23.0129 20.7219 22.9413L23.6208 22.476C24.1934 22.3687 24.7302 22.8339 24.7302 23.4066V24.8739Z" fill="white"/>
<path d="M9.73469 7.37296C11.1305 7.37296 12.3115 6.62139 12.9199 5.47614H15.3178C15.4252 5.47614 15.5683 5.44035 15.6399 5.33299L16.5704 4.40247C16.6062 4.36668 16.6778 4.36668 16.7493 4.40247L17.6083 5.26141C17.7157 5.36878 17.8946 5.36878 18.0378 5.26141C18.2883 5.01089 18.7535 4.58142 18.9325 4.40247C18.9683 4.36668 19.0398 4.36668 19.1114 4.40247L19.9704 5.26141C20.0777 5.36878 20.2925 5.36878 20.3998 5.26141L21.223 4.40247C21.2588 4.36668 21.3303 4.36668 21.4019 4.40247L22.2609 5.26141C22.3682 5.36878 22.5472 5.36878 22.6903 5.26141L24.0861 3.90143C24.1935 3.79406 24.1935 3.57932 24.0861 3.47196L22.5114 1.96882C22.4398 1.93303 22.3682 1.89724 22.2966 1.89724H12.9199C12.1326 0.465676 10.4147 -0.393261 8.55365 0.179364C7.44419 0.537254 6.54947 1.43198 6.22737 2.50565C5.44001 5.04667 7.30104 7.37296 9.73469 7.37296ZM8.44629 2.64881C9.01891 2.64881 9.48417 3.11407 9.48417 3.68669C9.48417 4.25932 9.01891 4.72457 8.44629 4.72457C7.87366 4.72457 7.4084 4.25932 7.4084 3.68669C7.44419 3.11407 7.87366 2.64881 8.44629 2.64881Z" fill="white"/>
</svg>
