<svg width="46" height="26" viewBox="0 0 46 26" fill="none" xmlns="http://www.w3.org/2000/svg">
<path d="M38.3294 26C34.369 26 31.1475 22.7785 31.1475 18.8181C31.1475 14.8544 34.369 11.6345 38.3294 11.6345C42.2897 11.6345 45.5113 14.8544 45.5113 18.8181C45.5113 22.7785 42.2897 26 38.3294 26ZM38.3294 15.0825C36.2698 15.0825 34.5954 16.7585 34.5954 18.8181C34.5954 20.8776 36.2698 22.552 38.3294 22.552C40.3889 22.552 42.0666 20.8776 42.0666 18.8181C42.0666 16.7585 40.3889 15.0825 38.3294 15.0825Z" fill="white"/>
<path d="M32.3013 0.0739527C30.2418 -0.492996 31.9096 2.33514 31.7492 3.94177C31.7492 3.94177 22.9194 -0.749198 19.6648 5.14674C18.4516 7.34676 18.1706 8.40132 14.9705 8.40132C11.7672 8.40132 13.0763 5.64592 8.86303 5.59302C6.21176 5.56327 3.49602 6.81452 3.76379 7.81949C3.98363 8.64264 11.344 8.98315 14.2168 14.5386C8.62501 17.0576 6.44977 17.7684 6.89771 18.9816C7.35888 20.2428 17.9706 21.6114 17.9706 21.6114C17.9706 21.6114 29.174 23.6445 29.3393 21.3965C29.7674 15.5072 31.7096 9.9782 40.5758 10.3005C41.8882 10.3501 42.0023 2.73514 32.3013 0.0739527Z" fill="white"/>
<path d="M9.95549 21.309C9.27283 22.071 8.28439 22.552 7.18025 22.552C5.12403 22.552 3.44632 20.8776 3.44632 18.8181C3.44632 16.7585 5.12403 15.0825 7.18025 15.0825C7.92075 15.0825 8.60671 15.299 9.18358 15.6693L12.5489 14.0511C11.2348 12.5701 9.31416 11.6345 7.17859 11.6345C3.21822 11.6345 0 14.8544 0 18.8181C0 22.7785 3.21822 26 7.17859 26C9.94392 26 12.3456 24.4314 13.5473 22.1388L9.95549 21.309Z" fill="white"/>
</svg>
