<svg width="41" height="34" viewBox="0 0 41 34" fill="none" xmlns="http://www.w3.org/2000/svg">
<path d="M39.6903 13.9898C39.6903 13.3834 39.2572 12.9503 38.6508 12.9503C38.4343 12.9503 38.1744 12.9503 37.9578 12.9503C36.6585 12.9503 35.7489 14.4229 35.7489 14.4229C35.6623 14.5962 35.5323 14.7694 35.4024 15.0293C35.2725 14.4662 35.1425 14.0331 35.0126 13.6C34.4495 11.651 33.5833 9.83185 32.4572 8.18599C31.6343 7.01656 30.4648 6.62675 29.1655 6.36688C26.8266 5.97707 24.4444 5.93376 22.1056 5.93376C19.7234 5.93376 17.3846 5.97707 15.0457 6.36688C13.7464 6.58344 12.5769 7.01656 11.754 8.18599C10.5846 9.87516 9.71833 11.651 9.19859 13.6C9.06865 14.0331 8.98203 14.4662 8.80878 15.0293C8.63553 14.7694 8.5056 14.5962 8.46228 14.4229C8.46228 14.4229 7.55273 12.9503 6.25337 12.9503C6.03681 12.9503 5.77693 12.9503 5.56037 12.9503C4.954 12.9503 4.52089 13.3834 4.52089 13.9898C4.52089 14.4229 4.52089 14.856 4.52089 15.2892C4.52089 15.9389 4.954 16.372 5.647 16.372C6.29668 16.372 6.94636 16.372 7.63936 16.372C7.89923 16.372 8.1591 16.372 8.41897 16.372C8.46229 16.4153 8.46229 16.4586 8.5056 16.5019C8.41897 16.5452 8.33235 16.5885 8.24572 16.6318C6.55655 18.2344 5.69031 20.1834 5.69031 22.5223C5.73362 23.9083 5.82025 25.2943 5.99349 26.6802C6.12343 27.763 6.33999 28.8025 6.85974 29.7554C7.0763 30.1885 7.33617 30.4917 7.8126 30.5783C8.02916 30.6216 8.07248 30.7516 8.07248 30.9682C8.07248 31.5312 8.07248 32.1376 8.07248 32.7006C8.07248 33.5236 8.54891 34 9.32852 34C10.0215 34 10.7145 34 11.3642 34C12.2304 34 12.7069 33.5669 12.7069 32.6573C12.7069 32.2242 12.7069 31.7478 12.7069 31.2713C15.8687 31.4879 18.9871 31.6178 22.1056 31.6178C25.2241 31.6178 28.3858 31.4879 31.5043 31.2713C31.5043 31.7478 31.5043 32.1809 31.5043 32.6573C31.5043 33.5236 31.9808 34 32.847 34C33.54 34 34.233 34 34.8827 34C35.6623 34 36.1387 33.5236 36.1387 32.7006C36.1387 32.1376 36.1387 31.5312 36.1387 30.9682C36.1387 30.7949 36.182 30.6216 36.3986 30.5783C36.875 30.4917 37.1349 30.1452 37.3515 29.7554C37.8279 28.7592 38.0878 27.7197 38.2177 26.6802C38.3909 25.2943 38.4776 23.9083 38.5209 22.5223C38.5642 20.1834 37.6546 18.2344 35.9655 16.6318C35.8788 16.5885 35.7922 16.5452 35.7056 16.5019C35.7489 16.4586 35.7489 16.4153 35.7922 16.372C36.0521 16.372 36.312 16.372 36.5718 16.372C37.2215 16.372 37.8712 16.372 38.5642 16.372C39.2139 16.372 39.647 15.9389 39.6903 15.2892C39.6903 14.8994 39.6903 14.4229 39.6903 13.9898ZM10.8011 15.3758C11.3209 13.2968 12.1005 11.3045 13.1833 9.44204C13.2266 9.35541 13.3132 9.26879 13.3999 9.18216C13.4865 9.13885 13.5731 9.05223 13.6597 9.05223C14.3527 8.74905 16.4317 8.14267 22.0623 8.09936C27.6929 8.14267 29.7718 8.74905 30.4648 9.05223C30.5948 9.09554 30.6814 9.13885 30.7247 9.18216C30.8113 9.26879 30.8546 9.3121 30.9413 9.44204C32.0674 11.3045 32.847 13.2535 33.3234 15.3758C33.3667 15.5057 33.3667 15.679 33.3667 15.7656C29.5553 15.4191 25.7871 15.2892 22.019 15.2892C18.2508 15.2892 14.4394 15.4624 10.6712 15.7656C10.7145 15.6357 10.7578 15.5057 10.8011 15.3758ZM11.3642 24.2548C9.9782 24.2548 8.8954 23.1287 8.8954 21.786C8.8954 20.4433 10.0215 19.3172 11.3642 19.3172C12.7069 19.3172 13.833 20.4433 13.833 21.786C13.833 23.1287 12.7502 24.2548 11.3642 24.2548ZM32.8037 24.2548C31.4177 24.2548 30.3349 23.1287 30.3349 21.786C30.3349 20.4433 31.461 19.3172 32.8037 19.3172C34.1897 19.3172 35.2725 20.4433 35.2725 21.786C35.2725 23.1287 34.1897 24.2548 32.8037 24.2548ZM38.3909 7.31975L38.9107 8.70573L40.2967 9.22548L38.9107 9.74522L38.3909 11.1312L37.8712 9.74522L36.4852 9.22548L37.8712 8.70573L38.3909 7.31975ZM2.05209 16.1121L2.57184 17.4981L3.95783 18.0178L2.57184 18.5376L2.05209 19.9236L1.53235 18.5376L0.146362 18.0178L1.53235 17.4981L2.05209 16.1121ZM7.0763 4.98089L7.94254 7.23312L10.1948 8.09936L7.94254 8.9656L7.0763 11.2178L6.21006 8.9656L3.95783 8.09936L6.21006 7.23312L7.0763 4.98089ZM34.5795 0L35.5323 2.46879L38.0011 3.42166L35.5323 4.37452L34.5795 6.84331L33.6266 4.37452L31.1578 3.42166L33.6266 2.46879L34.5795 0Z" fill="#CA0000"/>
</svg>
