<svg width="34" height="34" viewBox="0 0 34 34" fill="none" xmlns="http://www.w3.org/2000/svg">
<path d="M31.7526 7.1876C33.1579 5.78222 34.0207 4.09654 33.9985 2.69557C33.9866 1.94085 33.7486 1.22228 33.2653 0.733718C32.7768 0.250404 32.0582 0.0124144 31.3034 0.000417103C29.9025 -0.0217517 28.2167 0.841204 26.8115 2.24648C24.5111 4.31679 22.2512 6.63804 20.0735 8.98442L2.43656 5.45706C2.22974 5.41572 2.01594 5.48043 1.86679 5.62958L0.18391 7.31249C-0.117066 7.6134 -0.0397678 8.11993 0.337233 8.31736L14.2339 14.824L6.872 23.485C6.70364 23.683 6.43811 23.7695 6.18538 23.7085L2.64482 22.854C2.25729 22.7604 1.84899 22.8754 1.56708 23.1573L1.12361 23.6007C0.943063 23.7813 0.943063 24.074 1.12361 24.2546L9.7445 32.8754C9.92504 33.0559 10.2177 33.0559 10.3983 32.8754L10.8418 32.4319C11.1237 32.15 11.2386 31.7417 11.145 31.3541L10.2906 27.8136C10.2295 27.5609 10.316 27.2953 10.5141 27.127L19.175 19.7651L25.6816 33.6618C25.8791 34.0388 26.3856 34.1161 26.6865 33.8152L28.3695 32.1322C28.5186 31.9831 28.5833 31.7692 28.542 31.5624L25.0146 13.9255C27.3609 11.7478 29.6823 9.48794 31.7526 7.1876Z" fill="white"/>
</svg>
