<svg width="37" height="34" viewBox="0 0 37 34" fill="none" xmlns="http://www.w3.org/2000/svg">
<path fill-rule="evenodd" clip-rule="evenodd" d="M19.6066 0.563536C13.9713 2.62983 9.83866 9.20442 9.83866 17.0939C9.83866 24.7956 13.9713 31.558 19.6066 33.4365C12.8442 32.3094 9.08727 23.4807 9.08727 17.0939C9.08727 10.7072 12.8442 1.69061 19.6066 0.563536ZM23.1757 34C31.8166 34 36.5127 24.6077 36.5127 17.0939C36.5127 7.70166 30.6895 0 23.1757 0H14.9105C6.83313 0 0.258545 7.70166 0.258545 17.0939C0.258545 26.4862 6.83313 34 14.9105 34H23.1757ZM23.1757 12.0221C21.1094 12.0221 19.2309 14.2762 19.2309 17.0939C19.2309 19.7238 21.1094 21.9779 23.1757 21.9779C25.4298 21.9779 27.1204 19.7238 27.1204 17.0939C27.1204 14.2762 25.4298 12.0221 23.1757 12.0221ZM23.1757 22.9171C22.6121 22.9171 22.2364 23.4807 22.2364 24.0442C22.2364 24.7956 22.6121 25.3591 23.1757 25.3591C23.7392 25.3591 24.1149 24.7956 24.1149 24.0442C24.1149 23.4807 23.7392 22.9171 23.1757 22.9171ZM23.1757 8.64088C22.6121 8.64088 22.2364 9.20442 22.2364 9.9558C22.2364 10.7072 22.6121 11.0829 23.1757 11.0829C23.7392 11.0829 24.1149 10.7072 24.1149 9.9558C24.1149 9.20442 23.7392 8.64088 23.1757 8.64088ZM17.5403 15.779C17.1646 15.779 16.6011 16.3425 16.6011 17.0939C16.6011 17.6575 17.1646 18.221 17.5403 18.221C18.1038 18.221 18.6674 17.6575 18.6674 17.0939C18.6674 16.3425 18.1038 15.779 17.5403 15.779ZM28.811 15.779C28.2475 15.779 27.8718 16.3425 27.8718 17.0939C27.8718 17.6575 28.2475 18.221 28.811 18.221C29.3746 18.221 29.7503 17.6575 29.7503 17.0939C29.7503 16.3425 29.3746 15.779 28.811 15.779ZM23.1757 7.51381C19.0431 7.51381 15.6619 11.8343 15.6619 17.0939C15.6619 22.3536 19.0431 26.4862 23.1757 26.4862C27.3083 26.4862 30.6895 22.3536 30.6895 17.0939C30.6895 11.8343 27.3083 7.51381 23.1757 7.51381Z" fill="white"/>
</svg>
