<svg width="26" height="26" viewBox="0 0 26 26" fill="none" xmlns="http://www.w3.org/2000/svg">
<path d="M6.49961 12.0728C6.49554 12.0728 6.49148 12.0728 6.48661 12.0728C5.97389 12.0728 5.55786 12.488 5.55786 13.0015C5.55786 13.515 5.97307 13.9302 6.48661 13.9302C6.49148 13.9302 6.49555 13.9302 6.50042 13.9302H19.4996C19.5037 13.9302 19.5077 13.9302 19.5126 13.9302C20.0253 13.9302 20.4414 13.515 20.4414 13.0015C20.4414 12.488 20.0261 12.0728 19.5126 12.0728C19.5077 12.0728 19.5037 12.0728 19.4988 12.0728H6.49961Z" fill="white"/>
<path d="M13.9285 6.50058C13.9285 6.49652 13.9285 6.49246 13.9285 6.48758C13.9285 5.97486 13.5133 5.55884 12.9998 5.55884C12.4863 5.55884 12.071 5.97405 12.071 6.48758C12.071 6.49246 12.071 6.49652 12.071 6.5014V6.50058V19.5006C12.071 19.5046 12.071 19.5087 12.071 19.5136C12.071 20.0263 12.4863 20.4423 12.9998 20.4423C13.5133 20.4423 13.9285 20.0271 13.9285 19.5136C13.9285 19.5087 13.9285 19.5046 13.9285 19.4998V19.5006V6.50058Z" fill="white"/>
<path d="M13 0C5.83086 0 0 5.83168 0 13C0 20.1683 5.83168 26 13 26C20.1691 26 26 20.1683 26 13C26 5.83168 20.1683 0 13 0ZM13 1.85749C19.1656 1.85749 24.1433 6.83599 24.1433 13.0008C24.1433 19.1656 19.1656 24.1441 13 24.1441C6.83436 24.1441 1.85668 19.1664 1.85668 13.0008C1.85668 6.83518 6.83436 1.85749 13 1.85749Z" fill="white"/>
</svg>
