<svg width="29" height="25" viewBox="0 0 29 25" fill="none" xmlns="http://www.w3.org/2000/svg">
<path d="M22.9905 20.9397V20.4397H22.4905H17.9462C17.8638 20.4397 17.797 20.3729 17.797 20.2905C17.797 20.2081 17.8638 20.1413 17.9462 20.1413H22.4905C22.9314 20.1413 23.2889 20.4987 23.2889 20.9397V22.2381V22.7381H23.7889H26.3857H26.8857V22.2381V13.7638C26.8857 12.909 26.5334 12.0987 25.9197 11.5164C25.5254 11.1424 25.612 10.4922 26.0904 10.2344L27.9066 9.25557L28.1059 9.14816L28.1567 8.9275C28.1946 8.76284 28.1943 8.57053 28.1483 8.39838L28.1483 8.39836L27.9956 7.82679L27.8965 7.45583H27.5126H23.8711C23.5329 7.45583 23.2315 7.24285 23.1185 6.92416L22.3509 4.75828C22.0965 4.04043 21.4174 3.56068 20.6558 3.56068H17.9462C17.8638 3.56068 17.797 3.49388 17.797 3.41149C17.797 3.32909 17.8638 3.2623 17.9462 3.2623H20.6558C21.5438 3.2623 22.3355 3.82164 22.6321 4.6586L23.3998 6.82448L23.5178 7.15745H23.8711H27.9681C27.9702 7.15745 27.9769 7.15759 27.9904 7.16406C28.005 7.17102 28.0288 7.18615 28.0583 7.21684C28.119 7.27995 28.189 7.39441 28.2349 7.56638L28.2349 7.56644L28.4366 8.32134C28.4366 8.32135 28.4366 8.32135 28.4366 8.32136C28.5025 8.56807 28.4946 8.83735 28.4304 9.06035C28.363 9.29478 28.2575 9.40542 28.1978 9.43761C28.1978 9.43762 28.1978 9.43763 28.1977 9.43764L26.2319 10.4971L25.7212 10.7723L26.0689 11.2368L26.8293 12.2527C27.0581 12.7127 27.184 13.2276 27.184 13.7638V22.6828C27.184 22.8698 27.0273 23.0364 26.8151 23.0364H23.3594C23.1473 23.0364 22.9905 22.8698 22.9905 22.6828V20.9397ZM6.90989 20.4397H6.40989V20.9397V22.6828C6.40989 22.8698 6.25311 23.0364 6.04096 23.0364H2.58528C2.37313 23.0364 2.21635 22.8698 2.21635 22.6828V13.7638C2.21635 13.2276 2.3423 12.7127 2.57106 12.2527L3.33149 11.2369L3.6792 10.7724L3.16843 10.4971L1.20265 9.43764C1.20263 9.43763 1.20262 9.43762 1.2026 9.43762C1.14293 9.40542 1.03736 9.29479 0.969945 9.06035C0.905817 8.83734 0.897901 8.56806 0.963797 8.32134L0.963802 8.32132L1.1654 7.56643C1.1654 7.56642 1.1654 7.56642 1.16541 7.56641C1.21135 7.39442 1.28136 7.27995 1.34203 7.21684C1.37155 7.18615 1.39539 7.17102 1.40997 7.16406C1.42349 7.1576 1.43019 7.15745 1.43225 7.15745H5.52933H5.88259L6.0006 6.82448L6.76826 4.6586C7.0649 3.82164 7.85659 3.2623 8.74457 3.2623H11.4542C11.5366 3.2623 11.6034 3.32909 11.6034 3.41149C11.6034 3.49388 11.5366 3.56068 11.4542 3.56068H8.74457C7.98295 3.56068 7.30393 4.04043 7.0495 4.75828L6.28185 6.92416C6.16889 7.24285 5.86744 7.45583 5.52933 7.45583H1.88777H1.50378L1.4047 7.82683L1.25208 8.39834C1.25207 8.39834 1.25207 8.39835 1.25207 8.39835C1.20609 8.57051 1.20581 8.76283 1.2437 8.92751L1.29445 9.14816L1.49376 9.25557L3.30999 10.2344C3.78842 10.4923 3.87499 11.1424 3.48071 11.5164C2.86694 12.0987 2.51474 12.909 2.51474 13.7638V22.2381V22.7381H3.01474H5.61151H6.11151V22.2381V20.9397C6.11151 20.4987 6.46895 20.1413 6.90989 20.1413H11.4542C11.5366 20.1413 11.6034 20.2081 11.6034 20.2905C11.6034 20.3729 11.5366 20.4397 11.4542 20.4397H6.90989ZM8.64592 15.2936L8.646 15.2937C8.71841 15.3026 8.77794 15.3346 8.8152 15.3719C8.84982 15.4065 8.86239 15.4413 8.86239 15.476V15.6668L6.3789 15.5743C6.23493 15.5689 6.11151 15.4396 6.11151 15.2984V14.9804L8.64592 15.2936ZM20.7544 15.2937L20.7545 15.2936L23.2889 14.9804V15.2984C23.2889 15.4396 23.1655 15.5689 23.0215 15.5743L20.538 15.6668V15.476C20.538 15.4413 20.5506 15.4065 20.5852 15.3719C20.6224 15.3346 20.682 15.3026 20.7544 15.2937ZM14.7002 0.665527C14.7826 0.665527 14.8494 0.732324 14.8494 0.814719V24.1856C14.8494 24.268 14.7826 24.3348 14.7002 24.3348C14.6178 24.3348 14.551 24.268 14.551 24.1856V0.814719C14.551 0.732323 14.6178 0.665527 14.7002 0.665527Z" fill="black" stroke="black"/>
</svg>
