<svg width="27" height="24" viewBox="0 0 27 24" fill="none" xmlns="http://www.w3.org/2000/svg">
<path d="M25.7026 10.2288H7.1537C6.95141 10.2288 6.78589 10.0633 6.78589 9.86098C6.78589 9.65868 6.95141 9.49316 7.1537 9.49316H25.7026C25.9049 9.49316 26.0704 9.65868 26.0704 9.86098C26.0704 10.0633 25.9049 10.2288 25.7026 10.2288Z" fill="black"/>
<path d="M16.496 15.2973C16.2937 15.2973 16.1282 15.1318 16.1282 14.9295V5.1603C16.1282 4.958 16.2937 4.79248 16.496 4.79248C16.6983 4.79248 16.8638 4.958 16.8638 5.1603V14.9295C16.8638 15.1318 16.6983 15.2973 16.496 15.2973Z" fill="black"/>
<path d="M20.7626 14.5982C20.7442 14.5982 20.7295 14.5982 20.7111 14.5945C20.5088 14.5651 20.369 14.3812 20.3984 14.1789L21.6821 5.10855C21.7115 4.90625 21.8954 4.76648 22.0977 4.7959C22.3 4.82533 22.4398 5.00924 22.4104 5.21153L21.1267 14.2819C21.101 14.4658 20.9428 14.5982 20.7626 14.5982Z" fill="black"/>
<path d="M12.4758 15.9005C12.2955 15.9005 12.1374 15.7681 12.1116 15.5841L10.5889 5.18602C10.5594 4.98372 10.6992 4.79981 10.8978 4.77039C11.1001 4.73728 11.284 4.88073 11.3135 5.07935L12.8362 15.4775C12.8657 15.6798 12.7259 15.8637 12.5273 15.8931C12.5125 15.9005 12.4942 15.9005 12.4758 15.9005Z" fill="black"/>
<path d="M22.006 5.75593H5.63822C5.23362 5.75593 4.90259 5.42489 4.90259 5.0203C4.90259 4.6157 5.23362 4.28467 5.63822 4.28467H22.006C22.4106 4.28467 22.7416 4.6157 22.7416 5.0203C22.7416 5.42489 22.4106 5.75593 22.006 5.75593Z" fill="black"/>
<path d="M25.3235 19.7514H8.72035C7.91116 19.7514 7.27484 19.082 7.16817 18.1257C7.05047 17.048 7.64265 15.7974 8.99989 15.4995C9.01092 15.4958 9.02564 15.4958 9.04035 15.4921L23.878 13.0535L25.1323 9.68062C25.2757 9.29809 25.6987 9.10683 26.0775 9.2466C26.4601 9.38637 26.6513 9.81304 26.5116 10.1919L25.1102 13.9657C25.0182 14.2121 24.8012 14.3923 24.5401 14.4365L9.3015 16.9413C8.86012 17.0443 8.70196 17.368 8.65046 17.6254C8.5769 17.9822 8.6946 18.2507 8.74977 18.2912L25.3198 18.2801C25.7244 18.2801 26.0555 18.6112 26.0555 19.0158C26.0555 19.4204 25.7281 19.7514 25.3235 19.7514Z" fill="black"/>
<path d="M9.16175 16.9561C8.85278 16.9561 8.56589 16.7611 8.4629 16.4521L4.04912 3.18873C3.87257 2.65908 3.37969 2.30598 2.82429 2.30598H1.13602C0.731424 2.30598 0.400391 1.97494 0.400391 1.57035C0.400391 1.16575 0.731424 0.834717 1.13602 0.834717H2.82061C4.01234 0.834717 5.06796 1.59609 5.44314 2.72529L9.85692 15.9887C9.98565 16.3749 9.776 16.7905 9.38979 16.9193C9.31623 16.9413 9.23899 16.9561 9.16175 16.9561Z" fill="black"/>
<path d="M10.2983 23.6833C8.9742 23.6833 7.89282 22.6056 7.89282 21.2778C7.89282 19.95 8.97052 18.8723 10.2983 18.8723C11.6225 18.8723 12.7038 19.95 12.7038 21.2778C12.7038 22.6056 11.6225 23.6833 10.2983 23.6833ZM10.2983 20.3473C9.78339 20.3473 9.36408 20.7666 9.36408 21.2815C9.36408 21.7964 9.78339 22.2158 10.2983 22.2158C10.8133 22.2158 11.2326 21.7964 11.2326 21.2815C11.2326 20.7666 10.8133 20.3473 10.2983 20.3473Z" fill="black"/>
<path d="M22.5837 23.6833C21.2596 23.6833 20.1782 22.6056 20.1782 21.2778C20.1782 19.95 21.2559 18.8723 22.5837 18.8723C23.9115 18.8723 24.9892 19.95 24.9892 21.2778C24.9892 22.6056 23.9115 23.6833 22.5837 23.6833ZM22.5837 20.3473C22.0688 20.3473 21.6495 20.7666 21.6495 21.2815C21.6495 21.7964 22.0688 22.2158 22.5837 22.2158C23.0987 22.2158 23.518 21.7964 23.518 21.2815C23.518 20.7666 23.0987 20.3473 22.5837 20.3473Z" fill="black"/>
</svg>
