<svg width="19" height="20" viewBox="0 0 19 20" fill="none" xmlns="http://www.w3.org/2000/svg">
<path d="M2.93385 19.8432H16.2426C17.763 19.8432 18.9999 18.5393 18.9999 16.9365V2.90672C18.9999 1.30394 17.763 0 16.2426 0H2.93385C1.41344 0 0.176514 1.30394 0.176514 2.90672V16.9365C0.176514 18.5393 1.41344 19.8432 2.93385 19.8432ZM1.27945 2.90672C1.27945 1.94508 2.02163 1.16269 2.93385 1.16269H16.2426C17.1548 1.16269 17.897 1.94508 17.897 2.90672V16.9365C17.897 17.8981 17.1548 18.6805 16.2426 18.6805H2.93385C2.02163 18.6805 1.27945 17.8981 1.27945 16.9365V2.90672Z" fill="#404040"/>
<path d="M9.58822 15.1536C12.3249 15.1536 14.5514 12.8065 14.5514 9.92154C14.5514 7.03663 12.3249 4.68945 9.58822 4.68945C6.85156 4.68945 4.625 7.03663 4.625 9.92154C4.625 12.8065 6.85156 15.1536 9.58822 15.1536ZM9.58822 5.85214C11.7168 5.85214 13.4485 7.67762 13.4485 9.92154C13.4485 12.1655 11.7168 13.9909 9.58822 13.9909C7.45961 13.9909 5.72794 12.1655 5.72794 9.92154C5.72794 7.67762 7.45961 5.85214 9.58822 5.85214Z" fill="#404040"/>
<path d="M15.1029 5.85207C16.0151 5.85207 16.7573 5.06968 16.7573 4.10804C16.7573 3.14641 16.0151 2.36401 15.1029 2.36401C14.1907 2.36401 13.4485 3.14641 13.4485 4.10804C13.4485 5.06968 14.1907 5.85207 15.1029 5.85207ZM15.1029 3.5267C15.4069 3.5267 15.6544 3.78755 15.6544 4.10804C15.6544 4.42854 15.4069 4.68939 15.1029 4.68939C14.7989 4.68939 14.5514 4.42854 14.5514 4.10804C14.5514 3.78755 14.7989 3.5267 15.1029 3.5267Z" fill="#404040"/>
</svg>
