<svg width="24" height="24" viewBox="0 0 24 24" fill="none" xmlns="http://www.w3.org/2000/svg">
<path d="M23.066 21.6989L18.8421 17.475C22.0738 13.4496 21.762 7.49651 18.0767 3.83961C16.1491 1.91194 13.5694 0.834717 10.8196 0.834717C8.06986 0.834717 5.51853 1.91194 3.56251 3.83961C1.63484 5.76728 0.557617 8.34695 0.557617 11.0967C0.557617 13.8465 1.63484 16.3978 3.56251 18.3538C5.49018 20.2815 8.06986 21.3587 10.8196 21.3587C13.1442 21.3587 15.412 20.565 17.2263 19.1192L21.4501 23.3431C21.6769 23.5699 21.9604 23.6833 22.2439 23.6833C22.5557 23.6833 22.8392 23.5699 23.0376 23.3431C23.4912 22.8612 23.4912 22.1525 23.066 21.6989ZM18.8138 11.0684C18.8138 13.1945 17.9917 15.2072 16.4892 16.7096C14.9868 18.2121 12.9741 19.0342 10.848 19.0342C8.72186 19.0342 6.70915 18.2121 5.2067 16.7096C3.70425 15.2072 2.88216 13.1945 2.88216 11.0684C2.88216 8.94226 3.70425 6.92955 5.2067 5.4271C6.70915 3.92466 8.72186 3.10256 10.848 3.10256C12.9741 3.10256 14.9868 3.92466 16.4892 5.4271C17.9917 6.92955 18.8138 8.94226 18.8138 11.0684Z" fill="black"/>
</svg>
