<svg width="16" height="16" viewBox="0 0 16 16" fill="none" xmlns="http://www.w3.org/2000/svg">
<path d="M6.71484 1.60547L7.48828 0.832031C7.65234 0.667969 7.85156 0.585938 8.08594 0.585938C8.32031 0.585938 8.51953 0.667969 8.68359 0.832031L15.5039 7.65234C15.668 7.81641 15.75 8.01562 15.75 8.25C15.75 8.48438 15.668 8.68359 15.5039 8.84766L8.68359 15.668C8.51953 15.832 8.32031 15.9141 8.08594 15.9141C7.85156 15.9141 7.65234 15.832 7.48828 15.668L6.71484 14.8945C6.52734 14.7305 6.43359 14.5312 6.43359 14.2969C6.45703 14.0625 6.55078 13.8633 6.71484 13.6992L10.9336 9.65625H0.84375C0.609375 9.65625 0.410156 9.57422 0.246094 9.41016C0.0820313 9.24609 0 9.04688 0 8.8125V7.6875C0 7.45312 0.0820313 7.25391 0.246094 7.08984C0.410156 6.92578 0.609375 6.84375 0.84375 6.84375H10.9336L6.71484 2.80078C6.55078 2.63672 6.45703 2.4375 6.43359 2.20312C6.43359 1.96875 6.52734 1.76953 6.71484 1.60547Z" fill="#404040"/>
</svg>
