<svg width="23" height="20" viewBox="0 0 23 20" fill="none" xmlns="http://www.w3.org/2000/svg">
<path d="M23 2.36769C22.1447 2.76923 21.2333 3.03538 20.2831 3.16462C21.2606 2.54 22.0067 1.55846 22.3574 0.375385C21.4461 0.956923 20.4398 1.36769 19.3674 1.59692C18.5021 0.610769 17.2687 0 15.9232 0C13.3127 0 11.2111 2.26769 11.2111 5.04769C11.2111 5.44769 11.2427 5.83231 11.3203 6.19846C7.40025 5.99385 3.93156 3.98308 1.60137 0.92C1.19456 1.67538 0.955938 2.54 0.955938 3.47077C0.955938 5.21846 1.79688 6.76769 3.05038 7.66462C2.29281 7.64923 1.54963 7.41385 0.92 7.04308C0.92 7.05846 0.92 7.07846 0.92 7.09846C0.92 9.55077 2.55444 11.5877 4.69775 12.0569C4.31394 12.1692 3.89563 12.2231 3.4615 12.2231C3.15963 12.2231 2.85488 12.2046 2.56881 12.1369C3.17975 14.1354 4.91338 15.6046 6.97475 15.6523C5.3705 16.9954 3.33356 17.8046 1.12844 17.8046C0.74175 17.8046 0.370875 17.7862 0 17.7354C2.08869 19.1769 4.56406 20 7.2335 20C15.9102 20 20.654 12.3077 20.654 5.64C20.654 5.41692 20.6468 5.20154 20.6368 4.98769C21.5726 4.27692 22.3589 3.38923 23 2.36769Z" fill="#404040"/>
</svg>
