<svg width="95" height="64" viewBox="0 0 95 64" fill="none" xmlns="http://www.w3.org/2000/svg">
<path fill-rule="evenodd" clip-rule="evenodd" d="M88.9204 57.0299L94.4742 32.4686C96.2794 24.4817 87.4155 17.375 78.4645 14.5725L79.2544 13.2299H82.7718C86.2561 13.2299 86.3131 8.71829 84.6311 8.37587L79.9183 7.40868C77.8938 6.99116 77.1128 9.97384 77.4282 11.8271L76.3078 13.1067C71.595 7.35761 66.3835 1.97497 63.6922 1.25408C52.8008 -0.298834 41.9094 -0.533123 31.0179 1.25408C28.5609 1.91189 23.1152 7.35461 18.4023 13.1067L17.282 11.8271C17.5974 9.97384 16.8134 6.99417 14.7919 7.40868L10.0791 8.37587C8.394 8.71829 8.45107 13.2299 11.9384 13.2299H15.4557L16.2457 14.5725C7.29464 17.375 -1.5693 24.4817 0.235932 32.4686L5.78978 57.0299C7.89238 66.3234 86.8298 66.3234 88.9324 57.0299H88.9204ZM9.97995 8.73331C10.833 8.55009 11.6891 8.36686 12.5421 8.18964C12.6472 8.16862 12.7253 8.27074 12.6472 8.34583C12.0705 8.88049 10.9622 9.19888 10.9742 10.8449C10.9802 11.5388 11.9744 12.3287 13.1489 12.8364C13.266 12.8874 13.3231 13.0016 12.9987 12.9505C12.1516 12.8214 10.821 12.9355 10.1812 12.2897C9.19298 11.3976 9.15694 9.16284 9.97995 8.73632V8.73331ZM76.4009 15.3385C74.3043 23.866 71.6551 36.3013 66.0351 41.9333C66.9543 41.8161 74.7038 40.1821 75.9774 39.4222C74.9651 38.9626 73.4242 38.2057 73.8448 35.9739L76.8274 20.0453C76.9506 19.4445 80.3748 18.6125 80.3748 18.6125C77.269 18.3271 76.7313 14.2151 76.3979 15.3355L76.4009 15.3385ZM1.10701 30.5943C1.89999 35.0217 3.534 41.3085 5.02985 45.6969C5.18003 44.8499 5.97601 44.7688 6.57075 44.982C8.84455 45.793 13.4522 46.9194 15.726 47.7575C9.53841 43.1588 4.34801 33.9855 5.16201 32.7509C3.81034 32.0331 2.45867 31.3122 1.10701 30.5943ZM19.9072 15.1793C20.2857 21.6252 22.2861 31.6726 26.4973 39.6024C28.2395 40.6897 42.8255 44.0359 46.2016 44.2341C42.0956 43.363 33.7783 41.1103 32.2104 37.3376L24.5089 18.8228C23.9442 17.4591 28.1854 17.2578 30.0597 16.9244C25.9627 16.7442 22.2231 15.9632 19.9042 15.1793H19.9072ZM78.3413 27.2542C76.443 29.9184 78.3263 33.7241 81.6844 33.7241C83.9462 33.7241 85.7815 31.8889 85.7815 29.6241C85.7815 25.6141 80.6151 24.0402 78.3413 27.2542ZM81.8376 20.5108C80.6992 22.1058 81.8286 24.3856 83.8381 24.3856C85.1928 24.3856 86.2921 23.2863 86.2921 21.9316C86.2921 19.5286 83.1983 18.5885 81.8376 20.5108ZM16.3628 27.2542C18.2612 29.9184 16.3778 33.7241 13.0197 33.7241C10.7579 33.7241 8.92265 31.8889 8.92265 29.6241C8.92265 25.6141 14.089 24.0402 16.3628 27.2542ZM12.8665 20.5108C14.0049 22.1058 12.8755 24.3856 10.866 24.3856C9.51138 24.3856 8.41202 23.2863 8.41202 21.9316C8.41202 19.5286 11.5058 18.5885 12.8665 20.5108ZM85.5682 47.1627L74.9591 49.7519C73.7126 50.0553 72.6253 50.8032 72.6253 52.0858V57.4084C72.6253 58.6909 73.7126 60.0396 74.9591 59.7422L83.2914 57.7538C85.2799 57.2792 86.6165 56.0417 87.01 54.0352L87.9051 49.4966C88.1514 48.238 86.8178 46.8593 85.5712 47.1627H85.5682ZM27.7108 52.212C40.834 53.1251 53.8641 53.1791 66.78 52.212C68.4411 52.0888 69.4353 58.8772 64.5903 59.565C49.4847 61.7067 44.7899 61.6796 29.9005 59.565C25.0345 58.8742 26.0498 52.0978 27.7108 52.212ZM9.13892 47.1627L19.748 49.7519C20.9945 50.0553 22.0819 50.8032 22.0819 52.0858V57.4084C22.0819 58.6909 20.9945 60.0396 19.748 59.7422L11.4157 57.7538C9.42727 57.2792 8.09062 56.0417 7.69714 54.0352L6.80203 49.4966C6.55573 48.238 7.88938 46.8593 9.13591 47.1627H9.13892ZM11.7491 18.8708L16.6512 20.2465C17.2009 20.3997 17.0927 21.2317 17.1258 21.5411L18.6396 36.013C18.7207 36.7939 17.8917 37.8272 17.2099 37.4427L3.95152 30.0266C-0.193598 27.7077 8.45107 17.9457 11.7521 18.8708H11.7491ZM82.958 18.8708L78.056 20.2465C77.5063 20.3997 77.6144 21.2317 77.5814 21.5411L76.0675 36.013C75.9864 36.7939 76.8154 37.8272 77.4973 37.4427L90.7556 30.0266C94.9007 27.7077 86.2561 17.9457 82.955 18.8708H82.958ZM63.6892 2.99623C65.6506 3.11338 70.7539 8.24671 75.3766 13.8696C67.3267 16.9064 27.3744 16.9154 19.3275 13.8696C23.9502 8.24671 29.0535 3.12239 31.0149 2.99623C41.9063 2.29036 52.7978 2.34743 63.6892 2.99623Z" fill="#CA0000"/>
</svg>
