<svg width="64" height="64" viewBox="0 0 64 64" fill="none" xmlns="http://www.w3.org/2000/svg">
<path d="M32 0C19.2589 0 8.93023 10.3287 8.93023 23.0698C8.93023 35.8109 19.2589 46.1396 32 46.1396C44.7411 46.1396 55.0698 35.8109 55.0698 23.0698C55.0698 10.3287 44.7411 0 32 0ZM32 9.67442L36.1395 18L45.3953 19.3488L38.6977 25.814L40.2791 34.9767L32 30.6512L23.7209 34.9767L25.3023 25.814L18.6047 19.3488L27.8605 18L32 9.67442ZM12.4186 37.8837L0 55.814L11.1628 53.5814L14.1395 64L25.2326 46.6744C20.0581 45.1931 15.5858 42.0657 12.4186 37.8837ZM51.5814 37.8837C48.4142 42.0657 43.9419 45.1931 38.7674 46.6744L49.8605 64L52.8372 53.5814L64 55.814L51.5814 37.8837Z" fill="#CA0000"/>
</svg>
