<svg width="70" height="64" viewBox="0 0 70 64" fill="none" xmlns="http://www.w3.org/2000/svg">
<path d="M66.7841 50.0867H55.6534C53.4394 50.0867 51.316 49.2072 49.7505 47.6416C48.1849 46.076 47.3054 43.9527 47.3054 41.7387C47.3054 39.5246 48.1849 37.4013 49.7505 35.8357C51.316 34.2702 53.4394 33.3907 55.6534 33.3907H66.7841C67.5221 33.3907 68.2299 33.6838 68.7517 34.2057C69.2736 34.7275 69.5668 35.4353 69.5668 36.1733V47.304C69.5668 48.042 69.2736 48.7498 68.7517 49.2716C68.2299 49.7935 67.5221 50.0867 66.7841 50.0867ZM55.6534 38.956C54.9154 38.956 54.2076 39.2492 53.6858 39.771C53.1639 40.2929 52.8708 41.0007 52.8708 41.7387C52.8708 42.4767 53.1639 43.1845 53.6858 43.7063C54.2076 44.2282 54.9154 44.5213 55.6534 44.5213H64.0014V38.956H55.6534Z" fill="#CA0000"/>
<path d="M50.0882 8.34665H41.2671L48.4185 13.912H50.0882C50.8262 13.912 51.5339 14.2052 52.0558 14.727C52.5776 15.2489 52.8708 15.9566 52.8708 16.6947V19.4773H58.4362V16.6947C58.4362 14.4806 57.5566 12.3573 55.9911 10.7917C54.4255 9.22617 52.3022 8.34665 50.0882 8.34665Z" fill="#CA0000"/>
<path d="M19.6454 5.56395L11.687 16.6946H47.4721L26.7413 0.582977C26.448 0.355796 26.1124 0.189531 25.754 0.0939568C25.3955 -0.00161751 25.0217 -0.0245714 24.6542 0.0264438C24.2826 0.0809222 23.9258 0.210093 23.6053 0.40617C23.2849 0.602248 23.0075 0.861172 22.7899 1.16734L19.6454 5.56395Z" fill="#CA0000"/>
<path d="M55.6534 30.608H66.7841V27.8253C66.7841 25.6113 65.9045 23.488 64.339 21.9224C62.7734 20.3568 60.6501 19.4773 58.4361 19.4773H8.90454C8.09517 19.5397 7.29339 19.2839 6.66977 18.7642C6.04615 18.2445 5.64991 17.502 5.56534 16.6947C5.63993 15.9438 5.98678 15.2462 6.54044 14.7336C7.0941 14.2209 7.81626 13.9287 8.57062 13.912H10.268L14.2194 8.34665H8.12539C5.96385 8.44527 3.92092 9.36311 2.4117 10.9137C0.902479 12.4643 0.0401786 14.5312 0 16.6947V55.652C0 57.866 0.87952 59.9894 2.44508 61.555C4.01063 63.1205 6.13398 64 8.34801 64H58.4361C60.6501 64 62.7734 63.1205 64.339 61.555C65.9045 59.9894 66.7841 57.866 66.7841 55.652V52.8694H55.6534C52.7013 52.8694 49.8702 51.6967 47.7828 49.6092C45.6954 47.5218 44.5227 44.6907 44.5227 41.7387C44.5227 38.7866 45.6954 35.9555 47.7828 33.8681C49.8702 31.7807 52.7013 30.608 55.6534 30.608Z" fill="#CA0000"/>
</svg>
