<svg width="79" height="64" viewBox="0 0 79 64" fill="none" xmlns="http://www.w3.org/2000/svg">
<path d="M0.798989 59.8398C0.874692 60.9185 1.37379 61.9234 2.18744 62.6355C3.00109 63.3477 4.0633 63.7092 5.14245 63.6414L11.9565 63.3305C12.594 63.3052 13.2138 63.114 13.7547 62.7757C14.2956 62.4375 14.7389 61.9639 15.0408 61.4019C15.5244 61.8246 16.1438 62.0593 16.7861 62.0634H16.9057L46.1065 64C46.4784 64 46.8503 64 47.2222 64C51.0607 63.9981 54.8068 62.8217 57.9573 60.6288L76.5585 47.6224C76.9872 47.3251 77.3463 46.9382 77.6108 46.4886C77.8753 46.0389 78.039 45.5371 78.0905 45.0179C78.1421 44.4988 78.0802 43.9746 77.9093 43.4817C77.7383 42.9888 77.4623 42.5389 77.1004 42.1632L77.0207 42.0835C76.443 41.4788 75.6759 41.0899 74.8468 40.9812C74.0176 40.8724 73.1762 41.0505 72.4621 41.4857C66.6363 45.0482 55.1919 51.9579 55.1919 51.9579C53.765 52.8247 52.135 53.3003 50.4659 53.3366L37.4594 53.3605C37.3464 53.3652 37.2335 53.3476 37.1273 53.3087C37.021 53.2698 36.9235 53.2104 36.8403 53.1338C36.6721 52.9791 36.5723 52.7639 36.5628 52.5357C36.5533 52.3074 36.6348 52.0847 36.7895 51.9165C36.9442 51.7484 37.1594 51.6486 37.3877 51.6391L50.689 51.4C51.489 51.3737 52.2483 51.0406 52.8093 50.4696C53.3704 49.8987 53.6902 49.1338 53.7025 48.3334C53.7148 47.533 53.4186 46.7586 52.8754 46.1707C52.3321 45.5828 51.5835 45.2265 50.7846 45.1757L42.9106 44.5939C39.6138 44.335 36.3629 43.6602 33.2355 42.5855C23.2336 38.8876 17.2962 40.7844 14.1083 41.7886C13.7558 41.2385 13.2643 40.7911 12.6836 40.4917C12.1029 40.1923 11.4535 40.0513 10.8009 40.0831L3.98685 40.3939C3.44967 40.4021 2.91949 40.5171 2.42721 40.7323C1.93493 40.9474 1.49039 41.2584 1.11951 41.6471C0.748627 42.0358 0.458813 42.4944 0.266957 42.9962C0.0751005 43.498 -0.01496 44.033 0.00202358 44.57L0.798989 59.8398ZM7.82822 55.584C8.26957 55.6107 8.69335 55.7665 9.04687 56.032C9.4004 56.2976 9.66808 56.6612 9.81662 57.0776C9.96517 57.4941 9.98804 57.945 9.88238 58.3743C9.77672 58.8037 9.54719 59.1925 9.22234 59.4924C8.89749 59.7924 8.49164 59.9902 8.05525 60.0614C7.61887 60.1325 7.17119 60.0738 6.76789 59.8926C6.36458 59.7114 6.02344 59.4156 5.78687 59.0421C5.55031 58.6685 5.42875 58.2337 5.43733 57.7916C5.46019 57.1849 5.7217 56.6118 6.16497 56.1969C6.60823 55.7819 7.1974 55.5588 7.80431 55.5761L7.82822 55.584ZM55.9091 48.9852C56.066 47.7935 55.8101 46.5841 55.1839 45.5582L65.9668 39.9795C66.592 39.6424 67.3062 39.5073 68.0113 39.593C68.7164 39.6786 69.3776 39.9807 69.9038 40.4576C65.0742 43.3586 59.5831 46.7298 55.8852 48.9772L55.9091 48.9852ZM50.9281 43.0239L49.5812 42.9282L59.7505 38.9434C60.2819 38.7038 60.8661 38.605 61.4468 38.6567C62.0275 38.7083 62.5851 38.9086 63.0659 39.2383L53.6139 43.9404C52.8199 43.3938 51.8906 43.0767 50.9281 43.0239ZM18.3322 22.3187V33.5878C18.3322 34.2219 18.5841 34.83 19.0325 35.2784C19.4809 35.7268 20.089 35.9787 20.7231 35.9787H23.7516C24.3857 35.9787 24.9938 35.7268 25.4422 35.2784C25.8906 34.83 26.1425 34.2219 26.1425 33.5878V31.8185H52.6017V33.5878C52.6017 34.2219 52.8536 34.83 53.302 35.2784C53.7504 35.7268 54.3585 35.9787 54.9926 35.9787H58.037C58.6711 35.9787 59.2793 35.7268 59.7276 35.2784C60.176 34.83 60.4279 34.2219 60.4279 33.5878V22.3187C60.4927 20.2984 59.9364 18.3068 58.834 16.6125C58.7224 16.4531 58.6082 16.2937 58.4913 16.1343H59.6389C60.273 16.1343 60.8812 15.8824 61.3295 15.434C61.7779 14.9856 62.0298 14.3775 62.0298 13.7434C62.0298 13.0978 62.0298 12.5639 62.0298 12.0698C62.0216 11.4628 61.7774 10.8829 61.3489 10.453C60.9205 10.023 60.3415 9.77683 59.7346 9.76652H58.8659C57.8727 9.81775 56.9347 10.2385 56.2359 10.946C55.2979 8.44366 54.1543 6.02325 52.8169 3.70959C52.1757 2.8325 51.3609 2.09682 50.423 1.54837C49.4852 0.999923 48.4444 0.650453 47.3657 0.52173C44.7502 0.122448 42.1049 -0.048217 39.4598 0.0116718C36.8147 -0.048217 34.1694 0.122448 31.5539 0.52173C30.4751 0.650453 29.4344 0.999923 28.4965 1.54837C27.5587 2.09682 26.7438 2.8325 26.1026 3.70959C24.7652 6.02325 23.6216 8.44366 22.6836 10.946C21.9519 10.2117 20.9627 9.79144 19.9261 9.77449H19.0575C18.4521 9.79517 17.8784 10.0503 17.4576 10.486C17.0367 10.9217 16.8017 11.5039 16.802 12.1096C16.802 12.6037 16.802 13.1297 16.802 13.7832C16.802 14.4173 17.0539 15.0255 17.5023 15.4738C17.9507 15.9222 18.5588 16.1741 19.1929 16.1741H20.3246C20.2077 16.3335 20.0935 16.4929 19.9819 16.6523C18.8677 18.329 18.2921 20.306 18.3322 22.3187ZM47.7163 19.9278L52.0279 18.7961C52.3 18.72 52.586 18.7077 52.8636 18.7604C53.1413 18.8131 53.4029 18.9292 53.6282 19.0997C53.8535 19.2702 54.0364 19.4905 54.1624 19.7434C54.2885 19.9963 54.3544 20.2749 54.355 20.5574V21.6732C54.355 22.1593 54.1619 22.6256 53.8182 22.9693C53.4744 23.3131 53.0082 23.5062 52.522 23.5062H48.2104C47.7676 23.5022 47.3412 23.3379 47.01 23.0439C46.6789 22.7498 46.4654 22.3458 46.409 21.9066C46.3527 21.4673 46.4573 21.0225 46.7034 20.6543C46.9496 20.2862 47.3207 20.0196 47.7482 19.9039L47.7163 19.9278ZM24.3573 20.5654C24.358 20.2857 24.4227 20.0098 24.5464 19.759C24.6702 19.5081 24.8497 19.2889 25.0712 19.1181C25.2928 18.9474 25.5504 18.8296 25.8245 18.7738C26.0986 18.7179 26.3819 18.7256 26.6525 18.7961L30.9641 19.9278C31.3916 20.0435 31.7627 20.3101 32.0089 20.6783C32.2551 21.0464 32.3596 21.4912 32.3033 21.9305C32.2469 22.3697 32.0334 22.7737 31.7023 23.0678C31.3711 23.3618 30.9447 23.5261 30.5019 23.5301H26.2142C25.7281 23.5301 25.2618 23.337 24.9181 22.9932C24.5743 22.6495 24.3812 22.1832 24.3812 21.6971L24.3573 20.5654Z" fill="#CA0000"/>
</svg>
