<svg width="80" height="64" viewBox="0 0 80 64" fill="none" xmlns="http://www.w3.org/2000/svg">
<path d="M4.21889 28.9458H6.01883H6.25503C6.04327 29.2281 5.84237 29.4996 5.65233 29.7602C3.67105 32.7632 2.66423 36.3041 2.76915 39.9002V59.83C2.76915 60.9359 3.20849 61.9966 3.99052 62.7786C4.37774 63.1659 4.83744 63.473 5.34337 63.6826C5.8493 63.8921 6.39156 64 6.93917 64H12.3309C12.8785 64 13.4207 63.8921 13.9267 63.6826C14.4326 63.473 14.8923 63.1659 15.2795 62.7786C15.6667 62.3914 15.9739 61.9317 16.1835 61.4258C16.393 60.9199 16.5009 60.3776 16.5009 59.83V56.7025H50.7081V39.0451C47.988 38.1976 45.6091 36.5047 43.9173 34.2124C42.2256 31.92 41.3091 29.1478 41.3011 26.2988V6.8903C41.2947 4.65051 41.855 2.4455 42.93 0.48053H39.941C35.2594 0.374999 30.5776 0.677491 25.9486 1.38458C23.1469 1.87325 19.0909 3.01349 16.3054 6.98804C14.7417 9.24408 12.2331 14.8475 10.254 19.7913C9.02386 18.5348 7.36744 17.7851 5.61161 17.69C5.0985 17.69 4.58539 17.69 4.07228 17.69C2.99684 17.7047 1.96958 18.1385 1.20905 18.8991C0.448527 19.6596 0.0147487 20.6868 0 21.7623C0 22.6338 0 23.5704 0 24.7188C0.0187913 25.8326 0.469062 26.8956 1.256 27.6841C2.04293 28.4725 3.10512 28.9248 4.21889 28.9458ZM13.4385 36.7727C13.4414 36.2771 13.5573 35.7887 13.7774 35.3446C13.9975 34.9005 14.316 34.5125 14.7087 34.2101C15.1014 33.9078 15.5579 33.699 16.0435 33.5997C16.5291 33.5004 17.0309 33.5131 17.5108 33.6371L25.1423 35.6406C25.8822 35.8617 26.5195 36.3384 26.9406 36.9857C27.3617 37.633 27.5392 38.4088 27.4413 39.1748C27.3435 39.9409 26.9767 40.6472 26.4065 41.1679C25.8362 41.6886 25.0995 41.9898 24.3278 42.0178H16.6801C15.816 42.0178 14.9874 41.6746 14.3764 41.0636C13.7655 40.4527 13.4222 39.624 13.4222 38.76L13.4385 36.7727ZM47.776 26.2988V6.8903C47.776 5.06288 48.502 3.31031 49.7941 2.01812C51.0863 0.72594 52.8389 0 54.6663 0H72.9183C74.7457 0 76.4983 0.72594 77.7905 2.01812C79.0827 3.31031 79.8086 5.06288 79.8086 6.8903V26.2988C79.8086 28.1262 79.0827 29.8788 77.7905 31.171C76.4983 32.4632 74.7457 33.1891 72.9183 33.1891H70.3772V37.1311C70.3771 37.3053 70.3425 37.4777 70.2754 37.6385C70.2083 37.7992 70.11 37.9451 69.9863 38.0677L66.932 41.1219C66.8848 41.1688 66.8472 41.2247 66.8216 41.2862C66.796 41.3477 66.7828 41.4137 66.7828 41.4803C66.7828 41.5469 66.796 41.6129 66.8216 41.6744C66.8472 41.7359 66.8848 41.7917 66.932 41.8386L69.6523 44.5508C69.9746 44.8757 70.1555 45.3148 70.1555 45.7725C70.1555 46.2301 69.9746 46.6692 69.6523 46.9941L66.932 49.7144C66.8848 49.7614 66.8472 49.8172 66.8216 49.8787C66.796 49.9402 66.7828 50.0062 66.7828 50.0728C66.7828 50.1394 66.796 50.2054 66.8216 50.2669C66.8472 50.3284 66.8848 50.3842 66.932 50.4311L69.9863 53.4854C70.11 53.6079 70.2083 53.7538 70.2754 53.9146C70.3425 54.0753 70.3771 54.2478 70.3772 54.422V57.2482C70.3777 57.3999 70.3476 57.5502 70.2889 57.6901C70.2301 57.83 70.1438 57.9567 70.0351 58.0626L64.3339 63.7638C64.2628 63.835 64.1784 63.8914 64.0855 63.93C63.9925 63.9685 63.8929 63.9883 63.7923 63.9883C63.6917 63.9883 63.5921 63.9685 63.4992 63.93C63.4062 63.8914 63.3218 63.835 63.2507 63.7638L57.5495 58.0626C57.4434 57.9556 57.3598 57.8284 57.3039 57.6885C57.2479 57.5486 57.2206 57.3988 57.2237 57.2482V33.1565H54.6663C52.8445 33.1565 51.0969 32.4351 49.8056 31.1499C48.5144 29.8648 47.7846 28.1206 47.776 26.2988Z" fill="#CA0000"/>
</svg>
