<svg width="129" height="64" viewBox="0 0 129 64" fill="none" xmlns="http://www.w3.org/2000/svg">
<path d="M114.846 34.0979C114.787 36.7835 110.807 38.9519 105.903 38.9519C100.999 38.9519 97.0181 36.7835 96.9582 34.0979C92.7752 34.4797 89.1009 36.6125 86.666 39.7526C91.2551 43.6108 94.0418 49.3609 94.0432 55.4944C94.0432 55.9645 94.0204 56.4091 93.9877 56.8379C95.3568 56.8892 96.8101 56.8878 98.316 56.8878H113.491C121.627 56.8878 128.225 56.9091 128.225 48.7697C128.225 41.0904 122.348 34.7832 114.846 34.0979Z" fill="#CA0000"/>
<path d="M94.7571 20.7796C94.7656 20.8864 94.7741 20.9918 94.7841 21.0973C95.4951 29.1413 100.202 35.3573 105.904 35.3573C111.606 35.3573 116.313 29.1427 117.024 21.0973C117.034 20.9918 117.043 20.8864 117.051 20.7796C117.102 20.4305 117.137 20.0772 117.157 19.7181C117.171 19.4731 117.181 19.2266 117.181 18.9773C117.181 18.3661 117.137 17.7634 117.051 17.1764C116.228 11.4761 111.552 7.10931 105.906 7.10931C100.259 7.10931 95.5834 11.4761 94.7599 17.1764C94.6744 17.7634 94.6302 18.3661 94.6302 18.9773C94.6302 19.2266 94.6402 19.4731 94.6559 19.7181C94.6716 20.0757 94.7058 20.4291 94.7571 20.7796ZM98.9486 14.3797C98.9486 14.3797 102.193 15.9554 105.903 16.0566C109.613 15.9554 112.857 14.3797 112.857 14.3797C115.208 15.3072 114.095 21.9193 114.095 21.9208C114.682 21.5104 115.222 21.2967 115.659 21.187C115.012 28.2152 110.892 33.632 105.903 33.632C100.915 33.632 96.793 28.2152 96.1462 21.187C96.585 21.2967 97.1235 21.5119 97.7105 21.9208C97.7105 21.9193 96.5964 15.3072 98.9486 14.3797Z" fill="#CA0000"/>
<path d="M11.4548 20.7795C11.4633 20.8864 11.4719 20.9918 11.4818 21.0972C12.1928 29.1427 16.9001 35.3587 22.6004 35.3587C28.3007 35.3587 33.0094 29.1427 33.7189 21.0972C33.7289 20.9918 33.7375 20.8864 33.746 20.7795C33.7973 20.4305 33.8301 20.0771 33.8514 19.7195C33.8643 19.4745 33.8742 19.228 33.8742 18.9787C33.8742 18.3675 33.8301 17.7648 33.746 17.1778C32.9211 11.4775 28.2451 7.11072 22.6004 7.11072C16.9556 7.11072 12.2783 11.4775 11.4548 17.1778C11.3693 17.7662 11.3265 18.3675 11.3265 18.9787C11.3265 19.2266 11.3365 19.4745 11.3493 19.7195C11.3693 20.0771 11.4035 20.4291 11.4548 20.7795ZM15.6463 14.3797C15.6463 14.3797 18.8904 15.9568 22.6004 16.0566C26.3104 15.9568 29.5559 14.3797 29.5559 14.3797C31.9067 15.3072 30.7926 21.9207 30.7926 21.9207C31.3795 21.5118 31.9181 21.2981 32.3569 21.1884C31.7101 28.2166 27.5898 33.6348 22.6004 33.6348C17.6124 33.6348 13.4907 28.2166 12.8439 21.1884C13.2827 21.2981 13.8212 21.5118 14.4082 21.9222C14.4096 21.9207 13.2955 15.3072 15.6463 14.3797Z" fill="#CA0000"/>
<path d="M41.8513 39.2696C39.529 36.4159 36.1823 34.4284 32.3612 33.897C32.3356 33.8927 32.3099 33.8913 32.2843 33.887C32.0763 33.8585 31.8682 33.8343 31.6574 33.8144C31.6574 33.8372 31.6517 33.8571 31.6503 33.8785C31.6474 33.9412 31.636 33.9996 31.6289 34.0623C31.5904 34.4128 31.4864 34.7518 31.3226 35.0781C30.227 37.8378 26.6808 43.0665 24.5908 46.0342L24.1605 39.8666C24.7703 39.5546 25.2946 39.036 25.6308 38.4362C25.873 38.0031 26.0212 37.5315 26.0212 37.0513C26.0212 37.0513 24.4625 37.7409 22.8725 37.7409C22.7828 37.7409 22.6916 37.7381 22.6004 37.7338C22.5092 37.7381 22.4195 37.7409 22.3283 37.7409C20.7383 37.7409 19.1796 37.0513 19.1796 37.0513C19.1796 37.5315 19.3278 38.0031 19.57 38.4362C19.9063 39.036 20.4306 39.5546 21.0403 39.8666L20.6101 46.0342C18.5214 43.0665 14.9739 37.8364 13.8782 35.0781C13.7144 34.7518 13.6104 34.4128 13.5719 34.0623C13.5648 33.9996 13.5548 33.9412 13.5506 33.8785C13.5506 33.8571 13.5449 33.8372 13.5434 33.8144C13.3326 33.8343 13.1246 33.8585 12.9166 33.887C12.8895 33.8913 12.8638 33.8927 12.8382 33.897C5.5835 34.9043 0 41.1332 0 48.6671C0 56.9077 6.67911 56.8892 14.9197 56.8892H22.6018H30.284C31.552 56.8892 32.7829 56.8892 33.9597 56.8593C33.927 56.4219 33.9042 55.9717 33.9042 55.493C33.9028 49.1045 36.9217 43.1235 41.8513 39.2696Z" fill="#CA0000"/>
<path d="M47.0031 64C47.0559 64 47.1114 63.9986 47.1627 63.9971C47.0302 63.9986 46.8991 63.9971 46.7681 63.9971C46.8479 63.9971 46.9248 64 47.0031 64Z" fill="black"/>
<path d="M80.943 64C81.0228 64 81.0969 63.9971 81.1767 63.9971C81.0456 63.9971 80.9145 63.9986 80.7834 63.9971C80.8333 63.9986 80.8889 64 80.943 64Z" fill="black"/>
<path d="M54.4773 63.8761C52.9585 63.8761 51.4825 63.9145 50.072 63.9502C51.4853 63.9145 52.9557 63.8761 54.4773 63.8761H73.4689C74.989 63.8761 76.4594 63.9145 77.8727 63.9502C76.4608 63.916 74.9876 63.8761 73.4689 63.8761H54.4773Z" fill="black"/>
<path d="M91.7964 53.5454C91.7637 53.2334 91.7295 52.9213 91.681 52.6165C91.6511 52.4198 91.6098 52.2275 91.5728 52.0337C91.5215 51.7659 91.4702 51.498 91.4075 51.2345C91.3591 51.0265 91.3021 50.8184 91.2465 50.6119C91.1795 50.3711 91.1112 50.1332 91.0371 49.8981C90.9673 49.6815 90.8932 49.4664 90.8162 49.2527C90.7393 49.039 90.6581 48.8253 90.574 48.6158C90.4843 48.3907 90.3902 48.1699 90.2919 47.9491C90.2079 47.7624 90.1181 47.5786 90.0269 47.3963C89.913 47.1612 89.7976 46.9275 89.6736 46.6996C89.5938 46.5528 89.5083 46.4118 89.4229 46.2679C89.2747 46.0114 89.1265 45.7564 88.9684 45.5085C88.9285 45.4444 88.8815 45.386 88.8401 45.3233C87.9269 43.947 86.837 42.7018 85.5989 41.6176C85.5975 41.6176 85.5961 41.6161 85.5946 41.6147C85.2855 41.3469 84.9692 41.089 84.6429 40.8411C84.6201 40.824 84.5987 40.8055 84.5759 40.7884C84.254 40.5462 83.9263 40.3168 83.5886 40.0945C83.5615 40.0774 83.5359 40.0603 83.5103 40.0418C83.1697 39.821 82.8207 39.6101 82.4659 39.4121C82.4474 39.4007 82.4303 39.3907 82.4104 39.3822C81.3375 38.7866 80.2092 38.2823 79.0181 37.9076C82.1824 38.2609 84.9592 38.8066 84.9592 38.8066C84.2511 38.4191 83.6299 37.9133 83.0771 37.3292C78.6847 32.6988 78.8087 22.8782 78.8087 22.8782C79.9114 -1.25098 63.9887 0.011325 63.9887 0.011325L63.9773 0.0483666L63.9659 0.011325C63.9659 0.011325 48.0417 -1.24956 49.1459 22.8782C49.1459 22.8782 49.2698 32.676 44.8931 37.3121C44.336 37.9033 43.7091 38.4134 42.9953 38.8066C42.9953 38.8066 44.6936 38.6926 46.9675 38.6499C44.4842 39.7583 42.2958 41.4053 40.5391 43.4341C40.5363 43.4384 40.5334 43.4426 40.5291 43.4469C40.2556 43.7646 39.9892 44.0909 39.737 44.4271C39.7227 44.4471 39.7099 44.4656 39.6971 44.4841C39.4563 44.8075 39.2241 45.1366 39.0047 45.4743C38.979 45.5128 38.9548 45.5569 38.9306 45.5968C38.7254 45.9174 38.5288 46.2394 38.3436 46.5742C38.308 46.6397 38.2752 46.7095 38.2396 46.7751C38.0715 47.0871 37.9076 47.402 37.7581 47.7239C37.7139 47.818 37.6754 47.9191 37.6327 48.0146C37.5002 48.3138 37.3677 48.613 37.2508 48.9207C37.2024 49.0504 37.1611 49.1843 37.1141 49.3139C37.0158 49.5932 36.9132 49.8753 36.8263 50.1616C36.7764 50.3269 36.7365 50.4979 36.6924 50.666C36.6225 50.9253 36.5485 51.1803 36.4886 51.4425C36.4416 51.6505 36.4088 51.8656 36.3704 52.0765C36.3276 52.3044 36.2792 52.5295 36.2436 52.7603C36.2037 53.0282 36.1809 53.3032 36.1524 53.5753C36.1339 53.7548 36.1068 53.9315 36.0925 54.1124C36.0584 54.5683 36.0413 55.0299 36.0413 55.4958C36.0413 55.9133 36.0598 56.3051 36.0883 56.684C36.0954 56.7809 36.1039 56.8778 36.1125 56.9718C36.1453 57.3166 36.1866 57.65 36.2407 57.962C36.245 57.9862 36.2464 58.0105 36.2507 58.0333C36.312 58.3624 36.3889 58.6715 36.4744 58.9679C36.4972 59.0434 36.52 59.116 36.5428 59.1873C36.6254 59.4452 36.718 59.6916 36.8192 59.9239C36.832 59.9538 36.8434 59.9866 36.8562 60.0165C36.973 60.2701 37.1027 60.5037 37.2423 60.726C37.2765 60.7816 37.3135 60.8357 37.3506 60.8898C37.476 61.0765 37.6099 61.2546 37.7538 61.4213C37.7794 61.4512 37.8036 61.4825 37.8293 61.511C37.996 61.6976 38.1755 61.8672 38.3636 62.0282C38.4106 62.0667 38.459 62.1051 38.5089 62.1436C38.6713 62.2732 38.8423 62.3958 39.0204 62.5083C39.0603 62.534 39.0987 62.5625 39.14 62.5867C39.3523 62.7163 39.576 62.8317 39.8068 62.9386C39.8652 62.9671 39.9251 62.9899 39.9849 63.0155C40.1801 63.101 40.3795 63.1779 40.5876 63.2492C40.646 63.2691 40.7015 63.2891 40.7599 63.309C41.0121 63.3888 41.2714 63.46 41.5378 63.5241C41.6091 63.5412 41.6817 63.5541 41.7544 63.5712C41.9724 63.6182 42.1961 63.6609 42.4255 63.7008C42.5038 63.7136 42.5793 63.7279 42.6591 63.7379C42.9412 63.782 43.2304 63.8191 43.5268 63.849C43.6151 63.859 43.7063 63.8661 43.796 63.8746C44.0268 63.896 44.2619 63.9131 44.4999 63.9288C44.6053 63.9345 44.7079 63.9416 44.8133 63.9473C45.1168 63.9644 45.4259 63.9758 45.7408 63.9829C45.8562 63.9858 45.9759 63.9872 46.0941 63.99C46.3192 63.9929 46.5458 63.9957 46.7766 63.9972C46.9076 63.9972 47.0387 63.9986 47.1712 63.9972C47.63 63.9972 48.0973 63.9915 48.5746 63.9815C48.7669 63.9786 48.9592 63.9758 49.153 63.9715C49.4579 63.9644 49.7671 63.9573 50.0791 63.9487C51.491 63.9145 52.9656 63.8746 54.4843 63.8746H73.4759C74.9932 63.8746 76.4678 63.9131 77.8797 63.9487C78.196 63.9573 78.5095 63.9644 78.8201 63.9715C79.011 63.9758 79.199 63.9786 79.3857 63.9815C79.8615 63.9915 80.3317 63.9972 80.789 63.9972C80.9215 63.9986 81.0526 63.9972 81.1822 63.9972C81.4116 63.9957 81.6396 63.9929 81.8647 63.99C81.9829 63.9872 82.1026 63.9858 82.218 63.9829C82.5329 63.9744 82.8406 63.963 83.1427 63.9473C83.2509 63.9416 83.3564 63.9345 83.4618 63.9273C83.6983 63.9131 83.9305 63.896 84.1585 63.8746C84.2497 63.8661 84.3437 63.859 84.4349 63.849C84.7284 63.8191 85.0148 63.782 85.2954 63.7407C85.3795 63.7265 85.4593 63.7122 85.5419 63.6994C85.7656 63.6609 85.9836 63.6196 86.1959 63.5726C86.2728 63.5555 86.3497 63.5412 86.4252 63.5227C86.6888 63.46 86.9453 63.3888 87.1946 63.3104C87.2587 63.2891 87.3185 63.2677 87.3812 63.2449C87.5821 63.1765 87.7759 63.0996 87.9654 63.0198C88.0295 62.9913 88.095 62.9671 88.1577 62.9372C88.3842 62.8317 88.6036 62.7163 88.8145 62.5895C88.8601 62.561 88.9028 62.5325 88.9484 62.5026C89.1194 62.3929 89.2847 62.2732 89.4442 62.1479C89.4955 62.108 89.5482 62.0666 89.5981 62.0253C89.7847 61.8672 89.96 61.6991 90.1253 61.5139C90.1552 61.4825 90.1808 61.4455 90.2107 61.4127C90.3504 61.2503 90.48 61.0765 90.604 60.8941C90.641 60.8385 90.6795 60.7816 90.7165 60.7231C90.8547 60.5023 90.9844 60.2701 91.1012 60.0179C91.1169 59.9866 91.1297 59.9495 91.1425 59.9167C91.2437 59.6888 91.3334 59.4452 91.4132 59.1901C91.4388 59.116 91.4616 59.042 91.483 58.965C91.5699 58.6701 91.6468 58.3624 91.7067 58.0333C91.711 58.009 91.7138 57.9834 91.7181 57.9592C91.7737 57.6472 91.8135 57.3166 91.8463 56.9733C91.8549 56.8778 91.8634 56.7809 91.8705 56.6826C91.899 56.3036 91.9175 55.9133 91.9175 55.4958C91.9175 55.0043 91.8948 54.5199 91.8577 54.0412C91.8378 53.8731 91.8121 53.7092 91.7964 53.5454ZM74.7012 38.808C74.5858 39.0217 74.4461 39.2312 74.2909 39.4349C74.2766 39.452 74.2638 39.4677 74.251 39.4833C73.9347 39.8894 73.5414 40.2712 73.0813 40.626C73.0642 40.6374 73.0513 40.6516 73.0342 40.6616C72.8106 40.8311 72.5698 40.9921 72.3176 41.1488C72.282 41.1716 72.2449 41.1916 72.2108 41.2129C71.9515 41.3668 71.6822 41.5164 71.3987 41.656C71.393 41.6589 71.3858 41.6617 71.3787 41.6646C71.1052 41.7985 70.8145 41.921 70.5182 42.0393C70.4655 42.0607 70.4127 42.082 70.36 42.1034C70.0665 42.216 69.7631 42.3185 69.4496 42.4154C69.3812 42.4382 69.31 42.4567 69.2416 42.4781C68.9296 42.5693 68.6133 42.6548 68.2842 42.7303C68.2685 42.7346 68.2543 42.7388 68.2386 42.7417L63.973 49.6744L59.7074 42.7417C57.3822 42.2174 55.4546 41.2714 54.2279 40.0774C53.819 39.6814 53.4884 39.2554 53.2477 38.808C54.7223 38.9377 56.0544 39.1514 57.0189 39.489C57.4093 39.6258 57.7327 39.7825 57.9849 39.962C58.1658 40.0917 58.3211 40.2299 58.4166 40.3852L58.2841 40.0888L56.0672 35.1436C58.3183 37.3918 61.0395 38.7097 63.973 38.7097C66.8395 38.7097 69.5023 37.4517 71.7235 35.2975L70.0851 38.7097C70.4526 38.1028 71.5084 37.7979 72.8875 37.6782C73.5685 37.6184 74.3208 37.6013 75.12 37.6212C75.0517 38.0287 74.9063 38.4262 74.7012 38.808ZM76.2185 20.5359C75.9792 23.7301 75.1671 26.6722 73.9332 29.1398C71.6936 33.6306 68.0677 36.5484 63.9716 36.5484C57.7298 36.5484 52.5709 29.7667 51.7617 20.9719C51.7617 20.9719 56.6912 20.1555 59.6333 18.9944C59.6333 18.9944 64.966 17.2135 71.4799 12.5233C71.5112 12.5005 71.544 12.4777 71.5739 12.4534C71.5739 12.4534 71.6907 12.6216 71.8574 12.9065C72.4216 13.8753 73.6341 16.7632 71.3445 18.084L75.5161 18.6154H75.593L76.3539 18.7564C76.3482 19.3591 76.304 19.9532 76.2185 20.5359Z" fill="#CA0000"/>
</svg>
