<svg width="64" height="64" viewBox="0 0 64 64" fill="none" xmlns="http://www.w3.org/2000/svg">
<path d="M42.7287 34.0916C45.7778 34.0916 48.2496 31.5484 48.2496 28.4112C48.2496 25.274 45.7778 22.7308 42.7287 22.7308C39.6796 22.7308 37.2078 25.274 37.2078 28.4112C37.2078 31.5484 39.6796 34.0916 42.7287 34.0916Z" fill="#CA0000"/>
<path d="M21.2751 34.0916C24.3232 34.0916 26.7942 31.5484 26.7942 28.4112C26.7942 25.274 24.3232 22.7308 21.2751 22.7308C18.227 22.7308 15.756 25.274 15.756 28.4112C15.756 31.5484 18.227 34.0916 21.2751 34.0916Z" fill="#CA0000"/>
<path d="M32.2726 51.1654C37.7619 51.1654 41.316 46.7505 39.8234 44.1942C37.9999 45.2813 35.294 45.9708 32.2726 45.9708C29.2512 45.9708 26.5453 45.2813 24.7218 44.1942C23.2291 46.7496 26.7833 51.1654 32.2726 51.1654Z" fill="#CA0000"/>
<path d="M32.0013 0C14.3561 0 0 14.3552 0 31.9995C0 49.6439 14.3561 64 32.0013 64C49.6457 64 64.0009 49.6439 64.0009 31.9995C64.0009 14.3543 49.6466 0 32.0013 0ZM32.0013 58.8892C18.6205 58.8892 7.49489 49.0652 5.45059 36.2522C5.51909 19.0514 20.4557 28.504 20.4557 9.71857C21.1407 19.2749 28.8466 34.8758 58.5539 27.7676C58.773 29.1467 58.8901 30.5601 58.8901 31.9995C58.8901 46.8262 46.8289 58.8892 32.0013 58.8892Z" fill="#CA0000"/>
</svg>
