<svg width="91" height="77" viewBox="0 0 91 77" fill="none" xmlns="http://www.w3.org/2000/svg">
<path fill-rule="evenodd" clip-rule="evenodd" d="M42.3901 1.078C35.3521 24.811 28.0861 48.315 21.3381 72.336C15.3811 71.004 10.0681 69.032 4.33411 67.477C4.65311 66.18 5.16211 65.068 5.40911 63.701C9.98311 64.527 13.7071 66.203 18.0961 67.207C25.2971 45.254 31.5651 22.376 38.3431 0C39.7371 0.316 40.8951 0.866 42.3901 1.078Z" fill="#CA0000"/>
<path d="M56.9612 45.341C56.3112 44.83 54.8012 45.171 53.7212 45.07C53.7212 47.591 53.7212 50.11 53.7212 52.631C54.8112 52.631 55.8812 52.631 56.9612 52.631C56.9612 50.201 56.9612 47.771 56.9612 45.341ZM72.0812 44.531C72.0812 35.091 72.0812 25.641 72.0812 16.191C66.1321 16.181 59.7411 15.261 54.5312 15.921C46.3212 16.961 44.0312 24.371 41.8512 31.581C42.4911 32.411 45.2012 34.691 46.8512 36.771C48.2901 38.621 48.8912 40.331 46.4412 40.75C43.3412 41.291 43.1712 36.771 40.2312 36.441C38.9212 42.051 37.1612 47.221 35.6412 52.631C39.9612 52.631 44.2812 52.631 48.6012 52.631C48.8812 48.771 47.9912 43.75 49.1412 40.75C51.2902 39.3 55.7712 40.181 59.1202 39.94C58.9502 38.77 59.4802 36.9 58.8502 36.17C57.2892 38.04 51.1102 38.86 49.1802 36.71C48.8002 36.29 48.5902 35.75 48.6002 35.09C48.6702 31.75 51.9902 33.32 54.8102 32.66C58.2491 31.85 59.6102 27.94 63.1702 27.53C69.5292 26.79 69.9602 35.52 68.8402 41.301C68.5692 42.681 67.3102 43.54 67.4892 44.53C69.0212 44.531 70.5512 44.531 72.0812 44.531ZM76.1312 11.871C76.1312 22.761 76.1312 33.651 76.1312 44.531C80.8112 44.531 85.4902 44.531 90.1602 44.531C88.5402 55.831 95.4711 74.071 81.2501 72.601C85.4212 54.381 56.0401 54.5 60.4711 72.601C55.5311 72.601 50.5802 72.601 45.6312 72.601C46.2412 62.131 29.4512 62.431 29.9712 72.601C28.6312 72.601 27.2712 72.601 25.9312 72.601C27.9012 64.611 31.0712 53.861 34.2912 42.911C38.6312 28.201 40.1511 12.551 56.4212 11.871C63.8111 11.571 68.2112 11.911 76.1312 11.871Z" fill="#CA0000"/>
<path d="M82.7901 73.185C82.2891 73.185 81.7541 73.156 81.1991 73.098L80.6371 73.041L80.7631 72.49C81.6151 68.769 81.0721 65.555 79.1921 63.197C77.3381 60.87 74.1991 59.481 70.7951 59.481C67.3751 59.481 64.2381 60.877 62.4031 63.215C60.5501 65.574 60.0501 68.779 60.9571 72.482L61.1081 73.101H45.1011L45.1321 72.572C45.2491 70.558 44.6781 68.823 43.4791 67.552C42.1651 66.159 40.1401 65.361 37.9231 65.361C35.6421 65.361 33.5451 66.192 32.1681 67.64C30.9581 68.913 30.3711 70.62 30.4711 72.576L30.4981 73.101H25.2931L25.4461 72.481C27.3761 64.653 30.4011 54.368 33.6031 43.479L33.8121 42.77C34.4211 40.705 34.9811 38.596 35.5231 36.556C38.8811 23.913 42.0531 11.971 56.4011 11.372C58.5061 11.287 60.4961 11.247 62.6611 11.247C64.5091 11.247 66.2701 11.276 68.1211 11.307C70.1631 11.34 72.3141 11.376 74.8101 11.376L76.6311 11.37V44.031H90.7371L90.6551 44.602C90.1931 47.822 90.4411 51.681 90.6801 55.413C91.0931 61.834 91.4831 67.899 88.5171 71.062C87.1781 72.49 85.3051 73.184 82.7911 73.185C82.7921 73.185 82.7911 73.185 82.7901 73.185ZM81.8571 72.152C82.1791 72.173 82.4921 72.185 82.7901 72.185C82.7911 72.185 82.7921 72.185 82.7921 72.185C85.0151 72.184 86.6491 71.593 87.7891 70.378C90.4581 67.53 90.0821 61.675 89.6841 55.476C89.4551 51.909 89.2181 48.226 89.5921 45.031H75.6311V12.373L74.8101 12.375C72.3081 12.375 70.1521 12.339 68.1041 12.306C66.2591 12.276 64.5031 12.247 62.6611 12.247C60.5101 12.247 58.5341 12.287 56.4421 12.372C42.8311 12.94 39.8921 24.003 36.4891 36.813C35.9461 38.859 35.3841 40.974 34.7701 43.052L34.5621 43.761C31.4471 54.354 28.5001 64.374 26.5701 72.101H29.4591C29.4691 70.083 30.1501 68.312 31.4421 66.952C33.0061 65.306 35.3681 64.361 37.9221 64.361C40.4131 64.361 42.7031 65.274 44.2061 66.867C45.4901 68.227 46.1561 70.029 46.1461 72.101H59.8441C58.8631 67.387 60.2451 64.343 61.6151 62.598C63.6381 60.02 67.0691 58.481 70.7941 58.481C74.5001 58.481 77.9321 60.011 79.9741 62.574C81.9531 65.057 82.6001 68.359 81.8571 72.152Z" fill="#CA0000"/>
<path d="M49.0661 53.131H34.9811L35.1591 52.496C35.6901 50.604 36.2511 48.743 36.8111 46.882C37.8351 43.482 38.8941 39.964 39.7441 36.327L39.8451 35.894L40.2861 35.943C41.8841 36.123 42.7581 37.342 43.5291 38.418C44.3391 39.546 45.0251 40.48 46.3541 40.257C46.8221 40.176 47.4101 40 47.5591 39.614C47.6671 39.335 47.6671 38.635 46.4551 37.076C45.4851 35.853 44.1351 34.555 43.0511 33.514C42.3131 32.805 41.7301 32.244 41.4531 31.885L41.2961 31.681L41.3711 31.435C43.4871 24.441 45.8841 16.512 54.4681 15.425C55.7541 15.262 57.1931 15.183 58.8661 15.183C60.9811 15.183 63.2381 15.311 65.4221 15.434C67.6231 15.559 69.8991 15.687 72.0811 15.691L72.5801 15.692V45.031H67.0731L66.9981 44.62C66.8671 43.896 67.2631 43.28 67.6451 42.683C67.9391 42.226 68.2431 41.752 68.3501 41.205C69.0871 37.396 69.1891 32.027 67.0471 29.43C66.1121 28.298 64.8811 27.836 63.2281 28.027C61.5251 28.223 60.3511 29.318 59.1091 30.476C57.9211 31.585 56.6901 32.732 54.9241 33.148C54.1641 33.326 53.3931 33.35 52.7381 33.35L51.5521 33.339C49.7691 33.339 49.1301 33.606 49.0991 35.102C49.0911 35.607 49.2441 36.037 49.5501 36.376C50.1861 37.085 51.5111 37.491 53.1861 37.491C55.3791 37.491 57.6981 36.771 58.4651 35.851L58.8421 35.398L59.2281 35.844C59.7541 36.454 59.6881 37.471 59.6241 38.454C59.5911 38.959 59.5571 39.481 59.6131 39.869L59.6901 40.401L59.1541 40.44C58.0471 40.518 56.8241 40.48 55.5991 40.438C54.9011 40.416 54.2021 40.392 53.5261 40.392C52.2051 40.392 50.5771 40.472 49.5491 41.081C48.9151 42.891 49.0051 45.529 49.0931 48.084C49.1461 49.632 49.2001 51.233 49.0971 52.667L49.0661 53.131ZM36.3021 52.131H48.1301C48.1911 50.867 48.1431 49.472 48.0961 48.118C48.0031 45.391 47.9071 42.572 48.6741 40.571L48.7311 40.424L48.8621 40.336C50.0951 39.504 51.9131 39.391 53.5291 39.391C54.2161 39.391 54.9251 39.415 55.6351 39.438C56.6421 39.471 57.6491 39.507 58.5861 39.468C58.5801 39.119 58.6051 38.749 58.6281 38.388C58.6561 37.941 58.6901 37.426 58.6471 37.031C57.3331 37.991 55.0431 38.489 53.1881 38.489C51.2011 38.489 49.6461 37.976 48.8091 37.044C48.3291 36.513 48.0891 35.852 48.1011 35.083C48.1591 32.338 50.2851 32.338 51.5541 32.338L52.7401 32.349C53.3381 32.349 54.0371 32.328 54.6971 32.174C56.2041 31.819 57.2851 30.811 58.4281 29.744C59.7341 28.526 61.0841 27.267 63.1141 27.034C65.1171 26.801 66.6751 27.405 67.8201 28.794C70.1831 31.66 70.1121 37.374 69.3331 41.396C69.1881 42.132 68.8161 42.712 68.4881 43.224C68.2991 43.518 68.1261 43.787 68.0371 44.031H71.5811V16.688C69.5271 16.668 67.4141 16.548 65.3661 16.432C63.1971 16.309 60.9541 16.182 58.8671 16.182C57.2361 16.182 55.8381 16.259 54.5941 16.416C46.7521 17.409 44.5111 24.515 42.4091 31.465C42.6971 31.784 43.1911 32.259 43.7461 32.793C44.8521 33.856 46.2281 35.179 47.2431 36.459C48.4341 37.989 48.8301 39.105 48.4931 39.976C48.2371 40.636 47.5751 41.063 46.5251 41.243C44.5851 41.581 43.5771 40.201 42.7171 39.001C42.0971 38.136 41.5081 37.314 40.6061 37.028C39.7701 40.527 38.7531 43.902 37.7701 47.171C37.2731 48.818 36.7781 50.464 36.3021 52.131Z" fill="#CA0000"/>
<path d="M57.4611 53.131H53.2211V44.522L53.7671 44.573C54.1161 44.607 54.5121 44.587 54.9071 44.572C55.1551 44.561 55.4011 44.551 55.6371 44.551C56.1951 44.551 56.8251 44.598 57.2701 44.947L57.4611 45.097V53.131ZM54.2211 52.131H56.4611V45.64C56.1861 45.551 55.7891 45.551 55.6371 45.551C55.4141 45.551 55.1811 45.561 54.9481 45.571C54.7031 45.581 54.4581 45.591 54.2211 45.591V52.131Z" fill="#CA0000"/>
<path fill-rule="evenodd" clip-rule="evenodd" d="M63.9861 17.813C66.3021 17.537 68.5141 18.646 68.8401 21.32C69.7521 28.78 58.4641 27.35 60.2051 20.511C60.4751 19.461 61.5811 18.1 63.9861 17.813Z" fill="#CA0000"/>
<path fill-rule="evenodd" clip-rule="evenodd" d="M69.1101 62.618C79.1491 60.436 80.5951 74.689 72.8911 76.654C64.3301 78.836 59.1151 64.791 69.1101 62.618Z" fill="#CA0000"/>
<path fill-rule="evenodd" clip-rule="evenodd" d="M36.4511 68.555C39.8321 67.542 42.3741 69.564 42.1201 72.874C41.6591 78.934 32.1741 77.19 33.7531 70.984C33.9231 70.327 34.8071 69.047 36.4511 68.555Z" fill="#CA0000"/>
<path d="M31.0103 18.1484L23.4417 15.9409L21.2364 23.5018L28.805 25.7093L31.0103 18.1484Z" fill="#CA0000"/>
<path d="M24.7971 39.468L13.5981 36.201L16.8611 25.008L28.0621 28.269L24.7971 39.468Z" fill="#CA0000"/>
<path d="M23.6486 43.4133L12.4481 40.1492L9.18537 51.3449L20.3859 54.609L23.6486 43.4133Z" fill="#CA0000"/>
<path d="M19.6256 57.2049L2.1604 52.1169L-2.22131e-06 59.5327L17.4652 64.6207L19.6256 57.2049Z" fill="#CA0000"/>
<path d="M7.32611 50.799L2.91711 49.517L6.17711 38.318L10.5871 39.606L7.32611 50.799Z" fill="#CA0000"/>
</svg>
